<?xml version="1.0" encoding="UTF-8"?><svg xmlns="http://www.w3.org/2000/svg" xmlns:xlink="http://www.w3.org/1999/xlink" clip-rule="evenodd" stroke-miterlimit="4.00" viewBox="0 0 618 108"><desc>SVG generated by Keynote</desc><defs></defs><g transform="matrix(1.00, 0.00, -0.00, -1.00, 0.0, 108.0)"><text xml:space="preserve" font-family="Montserrat-Regular" font-size="87.6" fill="#000000" transform="matrix(1.00, 0.00, -0.00, -1.00, 0.3, 22.6)">•</text><text xml:space="preserve" font-family="Montserrat-Regular" font-size="29.0" fill="#000000" transform="matrix(1.00, 0.00, -0.00, -1.00, 26.0, 38.0)"> </text><text xml:space="preserve" font-family="Montserrat-Regular" font-size="29.0" fill="#000000" transform="matrix(1.00, 0.00, -0.00, -1.00, 39.8, 38.0)">M</text><text xml:space="preserve" font-family="Montserrat-Regular" font-size="29.0" fill="#000000" transform="matrix(1.00, 0.00, -0.00, -1.00, 73.7, 38.0)">e</text><text xml:space="preserve" font-family="Montserrat-Regular" font-size="29.0" fill="#000000" transform="matrix(1.00, 0.00, -0.00, -1.00, 97.5, 38.0)">r</text><text xml:space="preserve" font-family="Montserrat-Regular" font-size="29.0" fill="#000000" transform="matrix(1.00, 0.00, -0.00, -1.00, 114.9, 38.0)">g</text><text xml:space="preserve" font-family="Montserrat-Regular" font-size="29.0" fill="#000000" transform="matrix(1.00, 0.00, -0.00, -1.00, 141.0, 38.0)">e</text><text xml:space="preserve" font-family="Montserrat-Regular" font-size="29.0" fill="#000000" transform="matrix(1.00, 0.00, -0.00, -1.00, 164.8, 38.0)"> </text><text xml:space="preserve" font-family="Montserrat-Regular" font-size="29.0" fill="#000000" transform="matrix(1.00, 0.00, -0.00, -1.00, 178.6, 38.0)">w</text><text xml:space="preserve" font-family="Montserrat-Regular" font-size="29.0" fill="#000000" transform="matrix(1.00, 0.00, -0.00, -1.00, 210.3, 38.0)">i</text><text xml:space="preserve" font-family="Montserrat-Regular" font-size="29.0" fill="#000000" transform="matrix(1.00, 0.00, -0.00, -1.00, 224.3, 38.0)">t</text><text xml:space="preserve" font-family="Montserrat-Regular" font-size="29.0" fill="#000000" transform="matrix(1.00, 0.00, -0.00, -1.00, 242.3, 38.0)">h</text><text xml:space="preserve" font-family="Montserrat-Regular" font-size="29.0" fill="#000000" transform="matrix(1.00, 0.00, -0.00, -1.00, 268.1, 38.0)"> </text><text xml:space="preserve" font-family="Montserrat-Regular" font-size="29.0" fill="#000000" transform="matrix(1.00, 0.00, -0.00, -1.00, 281.9, 38.0)">A</text><text xml:space="preserve" font-family="Montserrat-Regular" font-size="29.0" fill="#000000" transform="matrix(1.00, 0.00, -0.00, -1.00, 309.0, 38.0)">i</text><text xml:space="preserve" font-family="Montserrat-Regular" font-size="29.0" fill="#000000" transform="matrix(1.00, 0.00, -0.00, -1.00, 323.0, 38.0)">r</text><text xml:space="preserve" font-family="Montserrat-Regular" font-size="29.0" fill="#000000" transform="matrix(1.00, 0.00, -0.00, -1.00, 340.8, 38.0)"> </text><text xml:space="preserve" font-family="Montserrat-Regular" font-size="29.0" fill="#000000" transform="matrix(1.00, 0.00, -0.00, -1.00, 354.6, 38.0)">I</text><text xml:space="preserve" font-family="Montserrat-Regular" font-size="29.0" fill="#000000" transform="matrix(1.00, 0.00, -0.00, -1.00, 369.6, 38.0)">n</text><text xml:space="preserve" font-family="Montserrat-Regular" font-size="29.0" fill="#000000" transform="matrix(1.00, 0.00, -0.00, -1.00, 395.4, 38.0)">t</text><text xml:space="preserve" font-family="Montserrat-Regular" font-size="29.0" fill="#000000" transform="matrix(1.00, 0.00, -0.00, -1.00, 412.9, 38.0)">e</text><text xml:space="preserve" font-family="Montserrat-Regular" font-size="29.0" fill="#000000" transform="matrix(1.00, 0.00, -0.00, -1.00, 436.6, 38.0)">r</text><text xml:space="preserve" font-family="Montserrat-Regular" font-size="29.0" fill="#000000" transform="matrix(1.00, 0.00, -0.00, -1.00, 454.5, 38.0)"> </text><text xml:space="preserve" font-family="Montserrat-Regular" font-size="29.0" fill="#000000" transform="matrix(1.00, 0.00, -0.00, -1.00, 468.3, 38.0)">i</text><text xml:space="preserve" font-family="Montserrat-Regular" font-size="29.0" fill="#000000" transform="matrix(1.00, 0.00, -0.00, -1.00, 482.3, 38.0)">n</text><text xml:space="preserve" font-family="Montserrat-Regular" font-size="29.0" fill="#000000" transform="matrix(1.00, 0.00, -0.00, -1.00, 508.1, 38.0)"> </text><text xml:space="preserve" font-family="Montserrat-Regular" font-size="29.0" fill="#000000" transform="matrix(1.00, 0.00, -0.00, -1.00, 521.9, 38.0)">1</text><text xml:space="preserve" font-family="Montserrat-Regular" font-size="29.0" fill="#000000" transform="matrix(1.00, 0.00, -0.00, -1.00, 538.6, 38.0)">9</text><text xml:space="preserve" font-family="Montserrat-Regular" font-size="29.0" fill="#000000" transform="matrix(1.00, 0.00, -0.00, -1.00, 562.5, 38.0)">9</text><text xml:space="preserve" font-family="Montserrat-Regular" font-size="29.0" fill="#000000" transform="matrix(1.00, 0.00, -0.00, -1.00, 586.4, 38.0)">0</text><text xml:space="preserve" font-family="Montserrat-Regular" font-size="29.0" fill="#000000" transform="matrix(1.00, 0.00, -0.00, -1.00, 611.5, 38.0)">.</text></g></svg>