<?xml version="1.0" encoding="UTF-8"?><svg xmlns="http://www.w3.org/2000/svg" xmlns:xlink="http://www.w3.org/1999/xlink" clip-rule="evenodd" stroke-miterlimit="4.00" viewBox="0 0 625 31"><desc>SVG generated by Keynote</desc><defs></defs><g transform="matrix(1.00, 0.00, -0.00, -1.00, 0.0, 31.0)"><text xml:space="preserve" font-family="Montserrat-Regular" font-size="29.0" fill="#000000" transform="matrix(1.00, 0.00, -0.00, -1.00, 2.0, 7.0)">A</text><text xml:space="preserve" font-family="Montserrat-Regular" font-size="29.0" fill="#000000" transform="matrix(1.00, 0.00, -0.00, -1.00, 28.9, 7.0)">é</text><text xml:space="preserve" font-family="Montserrat-Regular" font-size="29.0" fill="#000000" transform="matrix(1.00, 0.00, -0.00, -1.00, 52.6, 7.0)">r</text><text xml:space="preserve" font-family="Montserrat-Regular" font-size="29.0" fill="#000000" transform="matrix(1.00, 0.00, -0.00, -1.00, 70.1, 7.0)">o</text><text xml:space="preserve" font-family="Montserrat-Regular" font-size="29.0" fill="#000000" transform="matrix(1.00, 0.00, -0.00, -1.00, 94.5, 7.0)">p</text><text xml:space="preserve" font-family="Montserrat-Regular" font-size="29.0" fill="#000000" transform="matrix(1.00, 0.00, -0.00, -1.00, 120.3, 7.0)">o</text><text xml:space="preserve" font-family="Montserrat-Regular" font-size="29.0" fill="#000000" transform="matrix(1.00, 0.00, -0.00, -1.00, 144.7, 7.0)">s</text><text xml:space="preserve" font-family="Montserrat-Regular" font-size="29.0" fill="#000000" transform="matrix(1.00, 0.00, -0.00, -1.00, 165.1, 7.0)">t</text><text xml:space="preserve" font-family="Montserrat-Regular" font-size="29.0" fill="#000000" transform="matrix(1.00, 0.00, -0.00, -1.00, 183.1, 7.0)">a</text><text xml:space="preserve" font-family="Montserrat-Regular" font-size="29.0" fill="#000000" transform="matrix(1.00, 0.00, -0.00, -1.00, 206.4, 7.0)">l</text><text xml:space="preserve" font-family="Montserrat-Regular" font-size="29.0" fill="#000000" transform="matrix(1.00, 0.00, -0.00, -1.00, 220.5, 7.0)">e</text><text xml:space="preserve" font-family="Montserrat-Regular" font-size="29.0" fill="#000000" transform="matrix(1.00, 0.00, -0.00, -1.00, 244.2, 7.0)">,</text><text xml:space="preserve" font-family="Montserrat-Regular" font-size="29.0" fill="#000000" transform="matrix(1.00, 0.00, -0.00, -1.00, 256.6, 7.0)"> </text><text xml:space="preserve" font-family="Montserrat-Regular" font-size="29.0" fill="#000000" transform="matrix(1.00, 0.00, -0.00, -1.00, 270.4, 7.0)">C</text><text xml:space="preserve" font-family="Montserrat-Regular" font-size="29.0" fill="#000000" transform="matrix(1.00, 0.00, -0.00, -1.00, 297.4, 7.0)">I</text><text xml:space="preserve" font-family="Montserrat-Regular" font-size="29.0" fill="#000000" transform="matrix(1.00, 0.00, -0.00, -1.00, 312.4, 7.0)">D</text><text xml:space="preserve" font-family="Montserrat-Regular" font-size="29.0" fill="#000000" transform="matrix(1.00, 0.00, -0.00, -1.00, 342.6, 7.0)">N</text><text xml:space="preserve" font-family="Montserrat-Regular" font-size="29.0" fill="#000000" transform="matrix(1.00, 0.00, -0.00, -1.00, 372.4, 7.0)">A</text><text xml:space="preserve" font-family="Montserrat-Regular" font-size="29.0" fill="#000000" transform="matrix(1.00, 0.00, -0.00, -1.00, 400.4, 7.0)">,</text><text xml:space="preserve" font-family="Montserrat-Regular" font-size="29.0" fill="#000000" transform="matrix(1.00, 0.00, -0.00, -1.00, 412.7, 7.0)"> </text><text xml:space="preserve" font-family="Montserrat-Regular" font-size="29.0" fill="#000000" transform="matrix(1.00, 0.00, -0.00, -1.00, 426.5, 7.0)">a</text><text xml:space="preserve" font-family="Montserrat-Regular" font-size="29.0" fill="#000000" transform="matrix(1.00, 0.00, -0.00, -1.00, 449.9, 7.0)">n</text><text xml:space="preserve" font-family="Montserrat-Regular" font-size="29.0" fill="#000000" transform="matrix(1.00, 0.00, -0.00, -1.00, 475.8, 7.0)">d</text><text xml:space="preserve" font-family="Montserrat-Regular" font-size="29.0" fill="#000000" transform="matrix(1.00, 0.00, -0.00, -1.00, 501.6, 7.0)"> </text><text xml:space="preserve" font-family="Montserrat-Regular" font-size="29.0" fill="#000000" transform="matrix(1.00, 0.00, -0.00, -1.00, 515.5, 7.0)">S</text><text xml:space="preserve" font-family="Montserrat-Regular" font-size="29.0" fill="#000000" transform="matrix(1.00, 0.00, -0.00, -1.00, 539.5, 7.0)">G</text><text xml:space="preserve" font-family="Montserrat-Regular" font-size="29.0" fill="#000000" transform="matrix(1.00, 0.00, -0.00, -1.00, 568.1, 7.0)">T</text><text xml:space="preserve" font-family="Montserrat-Regular" font-size="29.0" fill="#000000" transform="matrix(1.00, 0.00, -0.00, -1.00, 590.0, 7.0)">A</text><text xml:space="preserve" font-family="Montserrat-Regular" font-size="29.0" fill="#000000" transform="matrix(1.00, 0.00, -0.00, -1.00, 618.0, 7.0)">.</text></g></svg>