<?xml version="1.0" encoding="UTF-8"?><svg xmlns="http://www.w3.org/2000/svg" xmlns:xlink="http://www.w3.org/1999/xlink" clip-rule="evenodd" stroke-miterlimit="4.00" viewBox="0 0 1583 106"><desc>SVG generated by Keynote</desc><defs></defs><g transform="matrix(1.00, 0.00, -0.00, -1.00, 0.0, 106.0)"><text xml:space="preserve" font-family="Montserrat-Bold" font-weight="bold" font-size="140.0" fill="#F7F7F7" transform="matrix(1.00, 0.00, -0.00, -1.00, -3.6, 3.8)">C</text><text xml:space="preserve" font-family="Montserrat-Bold" font-weight="bold" font-size="140.0" fill="#F7F7F7" transform="matrix(1.00, 0.00, -0.00, -1.00, 97.0, 3.8)">O</text><text xml:space="preserve" font-family="Montserrat-Bold" font-weight="bold" font-size="140.0" fill="#F7F7F7" transform="matrix(1.00, 0.00, -0.00, -1.00, 215.1, 3.8)">M</text><text xml:space="preserve" font-family="Montserrat-Bold" font-weight="bold" font-size="140.0" fill="#F7F7F7" transform="matrix(1.00, 0.00, -0.00, -1.00, 348.8, 3.8)">P</text><text xml:space="preserve" font-family="Montserrat-Bold" font-weight="bold" font-size="140.0" fill="#F7F7F7" transform="matrix(1.00, 0.00, -0.00, -1.00, 445.0, 3.8)">A</text><text xml:space="preserve" font-family="Montserrat-Bold" font-weight="bold" font-size="140.0" fill="#F7F7F7" transform="matrix(1.00, 0.00, -0.00, -1.00, 552.2, 3.8)">N</text><text xml:space="preserve" font-family="Montserrat-Bold" font-weight="bold" font-size="140.0" fill="#F7F7F7" transform="matrix(1.00, 0.00, -0.00, -1.00, 665.4, 3.8)">Y</text><text xml:space="preserve" font-family="Montserrat-Bold" font-weight="bold" font-size="140.0" fill="#F7F7F7" transform="matrix(1.00, 0.00, -0.00, -1.00, 760.0, 3.8)"> </text><text xml:space="preserve" font-family="Montserrat-Bold" font-weight="bold" font-size="140.0" fill="#F7F7F7" transform="matrix(1.00, 0.00, -0.00, -1.00, 799.6, 3.8)">A</text><text xml:space="preserve" font-family="Montserrat-Bold" font-weight="bold" font-size="140.0" fill="#F7F7F7" transform="matrix(1.00, 0.00, -0.00, -1.00, 906.9, 3.8)">N</text><text xml:space="preserve" font-family="Montserrat-Bold" font-weight="bold" font-size="140.0" fill="#F7F7F7" transform="matrix(1.00, 0.00, -0.00, -1.00, 1020.0, 3.8)">D</text><text xml:space="preserve" font-family="Montserrat-Bold" font-weight="bold" font-size="140.0" fill="#F7F7F7" transform="matrix(1.00, 0.00, -0.00, -1.00, 1135.6, 3.8)"> </text><text xml:space="preserve" font-family="Montserrat-Bold" font-weight="bold" font-size="140.0" fill="#F7F7F7" transform="matrix(1.00, 0.00, -0.00, -1.00, 1175.2, 3.8)">D</text><text xml:space="preserve" font-family="Montserrat-Bold" font-weight="bold" font-size="140.0" fill="#F7F7F7" transform="matrix(1.00, 0.00, -0.00, -1.00, 1290.9, 3.8)">U</text><text xml:space="preserve" font-family="Montserrat-Bold" font-weight="bold" font-size="140.0" fill="#F7F7F7" transform="matrix(1.00, 0.00, -0.00, -1.00, 1399.5, 3.8)">T</text><text xml:space="preserve" font-family="Montserrat-Bold" font-weight="bold" font-size="140.0" fill="#F7F7F7" transform="matrix(1.00, 0.00, -0.00, -1.00, 1484.2, 3.8)">Y</text></g></svg>