<?xml version="1.0" encoding="UTF-8"?><svg xmlns="http://www.w3.org/2000/svg" xmlns:xlink="http://www.w3.org/1999/xlink" clip-rule="evenodd" stroke-miterlimit="4.00" viewBox="0 0 660 108"><desc>SVG generated by Keynote</desc><defs></defs><g transform="matrix(1.00, 0.00, -0.00, -1.00, 0.0, 108.0)"><text xml:space="preserve" font-family="Montserrat-Regular" font-size="87.6" fill="#000000" transform="matrix(1.00, 0.00, -0.00, -1.00, 0.3, 22.6)">•</text><text xml:space="preserve" font-family="Montserrat-Regular" font-size="29.0" fill="#000000" transform="matrix(1.00, 0.00, -0.00, -1.00, 26.0, 38.0)"> </text><text xml:space="preserve" font-family="Montserrat-Regular" font-size="29.0" fill="#000000" transform="matrix(1.00, 0.00, -0.00, -1.00, 39.8, 38.0)">M</text><text xml:space="preserve" font-family="Montserrat-Regular" font-size="29.0" fill="#000000" transform="matrix(1.00, 0.00, -0.00, -1.00, 73.7, 38.0)">e</text><text xml:space="preserve" font-family="Montserrat-Regular" font-size="29.0" fill="#000000" transform="matrix(1.00, 0.00, -0.00, -1.00, 97.5, 38.0)">r</text><text xml:space="preserve" font-family="Montserrat-Regular" font-size="29.0" fill="#000000" transform="matrix(1.00, 0.00, -0.00, -1.00, 114.9, 38.0)">g</text><text xml:space="preserve" font-family="Montserrat-Regular" font-size="29.0" fill="#000000" transform="matrix(1.00, 0.00, -0.00, -1.00, 141.0, 38.0)">e</text><text xml:space="preserve" font-family="Montserrat-Regular" font-size="29.0" fill="#000000" transform="matrix(1.00, 0.00, -0.00, -1.00, 164.8, 38.0)"> </text><text xml:space="preserve" font-family="Montserrat-Regular" font-size="29.0" fill="#000000" transform="matrix(1.00, 0.00, -0.00, -1.00, 178.6, 38.0)">o</text><text xml:space="preserve" font-family="Montserrat-Regular" font-size="29.0" fill="#000000" transform="matrix(1.00, 0.00, -0.00, -1.00, 203.0, 38.0)">f</text><text xml:space="preserve" font-family="Montserrat-Regular" font-size="29.0" fill="#000000" transform="matrix(1.00, 0.00, -0.00, -1.00, 219.0, 38.0)"> </text><text xml:space="preserve" font-family="Montserrat-Regular" font-size="29.0" fill="#000000" transform="matrix(1.00, 0.00, -0.00, -1.00, 232.8, 38.0)">A</text><text xml:space="preserve" font-family="Montserrat-Regular" font-size="29.0" fill="#000000" transform="matrix(1.00, 0.00, -0.00, -1.00, 259.8, 38.0)">i</text><text xml:space="preserve" font-family="Montserrat-Regular" font-size="29.0" fill="#000000" transform="matrix(1.00, 0.00, -0.00, -1.00, 273.9, 38.0)">r</text><text xml:space="preserve" font-family="Montserrat-Regular" font-size="29.0" fill="#000000" transform="matrix(1.00, 0.00, -0.00, -1.00, 291.7, 38.0)"> </text><text xml:space="preserve" font-family="Montserrat-Regular" font-size="29.0" fill="#000000" transform="matrix(1.00, 0.00, -0.00, -1.00, 305.5, 38.0)">O</text><text xml:space="preserve" font-family="Montserrat-Regular" font-size="29.0" fill="#000000" transform="matrix(1.00, 0.00, -0.00, -1.00, 336.1, 38.0)">r</text><text xml:space="preserve" font-family="Montserrat-Regular" font-size="29.0" fill="#000000" transform="matrix(1.00, 0.00, -0.00, -1.00, 353.7, 38.0)">i</text><text xml:space="preserve" font-family="Montserrat-Regular" font-size="29.0" fill="#000000" transform="matrix(1.00, 0.00, -0.00, -1.00, 367.7, 38.0)">e</text><text xml:space="preserve" font-family="Montserrat-Regular" font-size="29.0" fill="#000000" transform="matrix(1.00, 0.00, -0.00, -1.00, 391.4, 38.0)">n</text><text xml:space="preserve" font-family="Montserrat-Regular" font-size="29.0" fill="#000000" transform="matrix(1.00, 0.00, -0.00, -1.00, 417.3, 38.0)">t</text><text xml:space="preserve" font-family="Montserrat-Regular" font-size="29.0" fill="#000000" transform="matrix(1.00, 0.00, -0.00, -1.00, 435.5, 38.0)">,</text><text xml:space="preserve" font-family="Montserrat-Regular" font-size="29.0" fill="#000000" transform="matrix(1.00, 0.00, -0.00, -1.00, 447.9, 38.0)"> </text><text xml:space="preserve" font-family="Montserrat-Regular" font-size="29.0" fill="#000000" transform="matrix(1.00, 0.00, -0.00, -1.00, 461.7, 38.0)">A</text><text xml:space="preserve" font-family="Montserrat-Regular" font-size="29.0" fill="#000000" transform="matrix(1.00, 0.00, -0.00, -1.00, 488.7, 38.0)">i</text><text xml:space="preserve" font-family="Montserrat-Regular" font-size="29.0" fill="#000000" transform="matrix(1.00, 0.00, -0.00, -1.00, 502.7, 38.0)">r</text><text xml:space="preserve" font-family="Montserrat-Regular" font-size="29.0" fill="#000000" transform="matrix(1.00, 0.00, -0.00, -1.00, 520.6, 38.0)"> </text><text xml:space="preserve" font-family="Montserrat-Regular" font-size="29.0" fill="#000000" transform="matrix(1.00, 0.00, -0.00, -1.00, 534.4, 38.0)">U</text><text xml:space="preserve" font-family="Montserrat-Regular" font-size="29.0" fill="#000000" transform="matrix(1.00, 0.00, -0.00, -1.00, 563.6, 38.0)">n</text><text xml:space="preserve" font-family="Montserrat-Regular" font-size="29.0" fill="#000000" transform="matrix(1.00, 0.00, -0.00, -1.00, 589.4, 38.0)">i</text><text xml:space="preserve" font-family="Montserrat-Regular" font-size="29.0" fill="#000000" transform="matrix(1.00, 0.00, -0.00, -1.00, 603.4, 38.0)">o</text><text xml:space="preserve" font-family="Montserrat-Regular" font-size="29.0" fill="#000000" transform="matrix(1.00, 0.00, -0.00, -1.00, 627.8, 38.0)">n</text><text xml:space="preserve" font-family="Montserrat-Regular" font-size="29.0" fill="#000000" transform="matrix(1.00, 0.00, -0.00, -1.00, 653.7, 38.0)">,</text></g></svg>