<?xml version="1.0" encoding="UTF-8"?><svg xmlns="http://www.w3.org/2000/svg" xmlns:xlink="http://www.w3.org/1999/xlink" clip-rule="evenodd" stroke-miterlimit="4.00" viewBox="0 0 576 32"><desc>SVG generated by Keynote</desc><defs></defs><g transform="matrix(1.00, 0.00, -0.00, -1.00, 0.0, 32.0)"><text xml:space="preserve" font-family="Montserrat-Medium" font-size="40.7" fill="#000000" transform="matrix(1.00, 0.00, -0.00, -1.00, -1.5, 1.4)">B</text><text xml:space="preserve" font-family="Montserrat-Medium" font-size="40.7" fill="#000000" transform="matrix(1.00, 0.00, -0.00, -1.00, 29.3, 1.4)">E</text><text xml:space="preserve" font-family="Montserrat-Medium" font-size="40.7" fill="#000000" transform="matrix(1.00, 0.00, -0.00, -1.00, 56.6, 1.4)">Z</text><text xml:space="preserve" font-family="Montserrat-Medium" font-size="40.7" fill="#000000" transform="matrix(1.00, 0.00, -0.00, -1.00, 83.3, 1.4)">A</text><text xml:space="preserve" font-family="Montserrat-Medium" font-size="40.7" fill="#000000" transform="matrix(1.00, 0.00, -0.00, -1.00, 113.0, 1.4)">L</text><text xml:space="preserve" font-family="Montserrat-Medium" font-size="40.7" fill="#000000" transform="matrix(1.00, 0.00, -0.00, -1.00, 137.2, 1.4)">I</text><text xml:space="preserve" font-family="Montserrat-Medium" font-size="40.7" fill="#000000" transform="matrix(1.00, 0.00, -0.00, -1.00, 149.8, 1.4)">E</text><text xml:space="preserve" font-family="Montserrat-Medium" font-size="40.7" fill="#000000" transform="matrix(1.00, 0.00, -0.00, -1.00, 177.1, 1.4)">L</text><text xml:space="preserve" font-family="Montserrat-Medium" font-size="40.7" fill="#000000" transform="matrix(1.00, 0.00, -0.00, -1.00, 201.2, 1.4)"> </text><text xml:space="preserve" font-family="Montserrat-Medium" font-size="40.7" fill="#000000" transform="matrix(1.00, 0.00, -0.00, -1.00, 212.1, 1.4)">M</text><text xml:space="preserve" font-family="Montserrat-Medium" font-size="40.7" fill="#000000" transform="matrix(1.00, 0.00, -0.00, -1.00, 251.0, 1.4)">A</text><text xml:space="preserve" font-family="Montserrat-Medium" font-size="40.7" fill="#000000" transform="matrix(1.00, 0.00, -0.00, -1.00, 280.8, 1.4)">R</text><text xml:space="preserve" font-family="Montserrat-Medium" font-size="40.7" fill="#000000" transform="matrix(1.00, 0.00, -0.00, -1.00, 310.3, 1.4)">V</text><text xml:space="preserve" font-family="Montserrat-Medium" font-size="40.7" fill="#000000" transform="matrix(1.00, 0.00, -0.00, -1.00, 338.7, 1.4)">E</text><text xml:space="preserve" font-family="Montserrat-Medium" font-size="40.7" fill="#000000" transform="matrix(1.00, 0.00, -0.00, -1.00, 365.9, 1.4)">L</text><text xml:space="preserve" font-family="Montserrat-Medium" font-size="40.7" fill="#000000" transform="matrix(1.00, 0.00, -0.00, -1.00, 390.1, 1.4)"> </text><text xml:space="preserve" font-family="Montserrat-Medium" font-size="40.7" fill="#000000" transform="matrix(1.00, 0.00, -0.00, -1.00, 401.0, 1.4)">P</text><text xml:space="preserve" font-family="Montserrat-Medium" font-size="40.7" fill="#000000" transform="matrix(1.00, 0.00, -0.00, -1.00, 430.0, 1.4)">R</text><text xml:space="preserve" font-family="Montserrat-Medium" font-size="40.7" fill="#000000" transform="matrix(1.00, 0.00, -0.00, -1.00, 459.5, 1.4)">I</text><text xml:space="preserve" font-family="Montserrat-Medium" font-size="40.7" fill="#000000" transform="matrix(1.00, 0.00, -0.00, -1.00, 472.1, 1.4)">B</text><text xml:space="preserve" font-family="Montserrat-Medium" font-size="40.7" fill="#000000" transform="matrix(1.00, 0.00, -0.00, -1.00, 502.9, 1.4)">A</text><text xml:space="preserve" font-family="Montserrat-Medium" font-size="40.7" fill="#000000" transform="matrix(1.00, 0.00, -0.00, -1.00, 532.7, 1.4)">D</text><text xml:space="preserve" font-family="Montserrat-Medium" font-size="40.7" fill="#000000" transform="matrix(1.00, 0.00, -0.00, -1.00, 566.3, 1.4)">I</text></g></svg>