<?xml version="1.0" encoding="UTF-8"?><svg xmlns="http://www.w3.org/2000/svg" xmlns:xlink="http://www.w3.org/1999/xlink" clip-rule="evenodd" stroke-miterlimit="4.00" viewBox="0 0 768 69"><desc>SVG generated by Keynote</desc><defs></defs><g transform="matrix(1.00, 0.00, -0.00, -1.00, 0.0, 69.0)"><text xml:space="preserve" font-family="Montserrat-SemiBoldItalic" font-style="italic" font-weight="bold" font-size="33.0" fill="#000000" transform="matrix(1.00, 0.00, -0.00, -1.00, 2.0, 42.0)">2</text><text xml:space="preserve" font-family="Montserrat-SemiBoldItalic" font-style="italic" font-weight="bold" font-size="33.0" fill="#000000" transform="matrix(1.00, 0.00, -0.00, -1.00, 28.6, 42.0)">.</text><text xml:space="preserve" font-family="Montserrat-SemiBoldItalic" font-style="italic" font-weight="bold" font-size="33.0" fill="#000000" transform="matrix(1.00, 0.00, -0.00, -1.00, 43.7, 42.0)"> </text><text xml:space="preserve" font-family="Montserrat-SemiBoldItalic" font-style="italic" font-weight="bold" font-size="33.0" fill="#000000" transform="matrix(1.00, 0.00, -0.00, -1.00, 59.9, 42.0)">B</text><text xml:space="preserve" font-family="Montserrat-SemiBoldItalic" font-style="italic" font-weight="bold" font-size="33.0" fill="#000000" transform="matrix(1.00, 0.00, -0.00, -1.00, 92.1, 42.0)">E</text><text xml:space="preserve" font-family="Montserrat-SemiBoldItalic" font-style="italic" font-weight="bold" font-size="33.0" fill="#000000" transform="matrix(1.00, 0.00, -0.00, -1.00, 121.3, 42.0)">I</text><text xml:space="preserve" font-family="Montserrat-SemiBoldItalic" font-style="italic" font-weight="bold" font-size="33.0" fill="#000000" transform="matrix(1.00, 0.00, -0.00, -1.00, 138.9, 42.0)">N</text><text xml:space="preserve" font-family="Montserrat-SemiBoldItalic" font-style="italic" font-weight="bold" font-size="33.0" fill="#000000" transform="matrix(1.00, 0.00, -0.00, -1.00, 172.7, 42.0)">G</text><text xml:space="preserve" font-family="Montserrat-SemiBoldItalic" font-style="italic" font-weight="bold" font-size="33.0" fill="#000000" transform="matrix(1.00, 0.00, -0.00, -1.00, 205.2, 42.0)"> </text><text xml:space="preserve" font-family="Montserrat-SemiBoldItalic" font-style="italic" font-weight="bold" font-size="33.0" fill="#000000" transform="matrix(1.00, 0.00, -0.00, -1.00, 221.4, 42.0)">A</text><text xml:space="preserve" font-family="Montserrat-SemiBoldItalic" font-style="italic" font-weight="bold" font-size="33.0" fill="#000000" transform="matrix(1.00, 0.00, -0.00, -1.00, 253.2, 42.0)"> </text><text xml:space="preserve" font-family="Montserrat-SemiBoldItalic" font-style="italic" font-weight="bold" font-size="33.0" fill="#000000" transform="matrix(1.00, 0.00, -0.00, -1.00, 269.4, 42.0)">“</text><text xml:space="preserve" font-family="Montserrat-SemiBoldItalic" font-style="italic" font-weight="bold" font-size="33.0" fill="#000000" transform="matrix(1.00, 0.00, -0.00, -1.00, 291.5, 42.0)">B</text><text xml:space="preserve" font-family="Montserrat-SemiBoldItalic" font-style="italic" font-weight="bold" font-size="33.0" fill="#000000" transform="matrix(1.00, 0.00, -0.00, -1.00, 323.7, 42.0)">A</text><text xml:space="preserve" font-family="Montserrat-SemiBoldItalic" font-style="italic" font-weight="bold" font-size="33.0" fill="#000000" transform="matrix(1.00, 0.00, -0.00, -1.00, 354.3, 42.0)">T</text><text xml:space="preserve" font-family="Montserrat-SemiBoldItalic" font-style="italic" font-weight="bold" font-size="33.0" fill="#000000" transform="matrix(1.00, 0.00, -0.00, -1.00, 380.9, 42.0)">C</text><text xml:space="preserve" font-family="Montserrat-SemiBoldItalic" font-style="italic" font-weight="bold" font-size="33.0" fill="#000000" transform="matrix(1.00, 0.00, -0.00, -1.00, 412.0, 42.0)">H</text><text xml:space="preserve" font-family="Montserrat-SemiBoldItalic" font-style="italic" font-weight="bold" font-size="33.0" fill="#000000" transform="matrix(1.00, 0.00, -0.00, -1.00, 445.8, 42.0)"> </text><text xml:space="preserve" font-family="Montserrat-SemiBoldItalic" font-style="italic" font-weight="bold" font-size="33.0" fill="#000000" transform="matrix(1.00, 0.00, -0.00, -1.00, 462.0, 42.0)">R</text><text xml:space="preserve" font-family="Montserrat-SemiBoldItalic" font-style="italic" font-weight="bold" font-size="33.0" fill="#000000" transform="matrix(1.00, 0.00, -0.00, -1.00, 493.2, 42.0)">E</text><text xml:space="preserve" font-family="Montserrat-SemiBoldItalic" font-style="italic" font-weight="bold" font-size="33.0" fill="#000000" transform="matrix(1.00, 0.00, -0.00, -1.00, 522.3, 42.0)">F</text><text xml:space="preserve" font-family="Montserrat-SemiBoldItalic" font-style="italic" font-weight="bold" font-size="33.0" fill="#000000" transform="matrix(1.00, 0.00, -0.00, -1.00, 550.4, 42.0)">E</text><text xml:space="preserve" font-family="Montserrat-SemiBoldItalic" font-style="italic" font-weight="bold" font-size="33.0" fill="#000000" transform="matrix(1.00, 0.00, -0.00, -1.00, 579.6, 42.0)">R</text><text xml:space="preserve" font-family="Montserrat-SemiBoldItalic" font-style="italic" font-weight="bold" font-size="33.0" fill="#000000" transform="matrix(1.00, 0.00, -0.00, -1.00, 610.8, 42.0)">E</text><text xml:space="preserve" font-family="Montserrat-SemiBoldItalic" font-style="italic" font-weight="bold" font-size="33.0" fill="#000000" transform="matrix(1.00, 0.00, -0.00, -1.00, 640.0, 42.0)">N</text><text xml:space="preserve" font-family="Montserrat-SemiBoldItalic" font-style="italic" font-weight="bold" font-size="33.0" fill="#000000" transform="matrix(1.00, 0.00, -0.00, -1.00, 673.8, 42.0)">T</text><text xml:space="preserve" font-family="Montserrat-SemiBoldItalic" font-style="italic" font-weight="bold" font-size="33.0" fill="#000000" transform="matrix(1.00, 0.00, -0.00, -1.00, 701.6, 42.0)">”</text><text xml:space="preserve" font-family="Montserrat-SemiBoldItalic" font-style="italic" font-weight="bold" font-size="33.0" fill="#000000" transform="matrix(1.00, 0.00, -0.00, -1.00, 723.7, 42.0)"> </text><text xml:space="preserve" font-family="Montserrat-SemiBoldItalic" font-style="italic" font-weight="bold" font-size="33.0" fill="#000000" transform="matrix(1.00, 0.00, -0.00, -1.00, 2.0, 2.0)">O</text><text xml:space="preserve" font-family="Montserrat-SemiBoldItalic" font-style="italic" font-weight="bold" font-size="33.0" fill="#000000" transform="matrix(1.00, 0.00, -0.00, -1.00, 36.9, 2.0)">N</text><text xml:space="preserve" font-family="Montserrat-SemiBoldItalic" font-style="italic" font-weight="bold" font-size="33.0" fill="#000000" transform="matrix(1.00, 0.00, -0.00, -1.00, 70.7, 2.0)"> </text><text xml:space="preserve" font-family="Montserrat-SemiBoldItalic" font-style="italic" font-weight="bold" font-size="33.0" fill="#000000" transform="matrix(1.00, 0.00, -0.00, -1.00, 86.8, 2.0)">T</text><text xml:space="preserve" font-family="Montserrat-SemiBoldItalic" font-style="italic" font-weight="bold" font-size="33.0" fill="#000000" transform="matrix(1.00, 0.00, -0.00, -1.00, 113.8, 2.0)">H</text><text xml:space="preserve" font-family="Montserrat-SemiBoldItalic" font-style="italic" font-weight="bold" font-size="33.0" fill="#000000" transform="matrix(1.00, 0.00, -0.00, -1.00, 147.6, 2.0)">E</text><text xml:space="preserve" font-family="Montserrat-SemiBoldItalic" font-style="italic" font-weight="bold" font-size="33.0" fill="#000000" transform="matrix(1.00, 0.00, -0.00, -1.00, 176.8, 2.0)"> </text><text xml:space="preserve" font-family="Montserrat-SemiBoldItalic" font-style="italic" font-weight="bold" font-size="33.0" fill="#000000" transform="matrix(1.00, 0.00, -0.00, -1.00, 192.9, 2.0)">“</text><text xml:space="preserve" font-family="Montserrat-SemiBoldItalic" font-style="italic" font-weight="bold" font-size="33.0" fill="#000000" transform="matrix(1.00, 0.00, -0.00, -1.00, 215.1, 2.0)">M</text><text xml:space="preserve" font-family="Montserrat-SemiBoldItalic" font-style="italic" font-weight="bold" font-size="33.0" fill="#000000" transform="matrix(1.00, 0.00, -0.00, -1.00, 253.6, 2.0)">O</text><text xml:space="preserve" font-family="Montserrat-SemiBoldItalic" font-style="italic" font-weight="bold" font-size="33.0" fill="#000000" transform="matrix(1.00, 0.00, -0.00, -1.00, 288.5, 2.0)">D</text><text xml:space="preserve" font-family="Montserrat-SemiBoldItalic" font-style="italic" font-weight="bold" font-size="33.0" fill="#000000" transform="matrix(1.00, 0.00, -0.00, -1.00, 322.8, 2.0)">E</text><text xml:space="preserve" font-family="Montserrat-SemiBoldItalic" font-style="italic" font-weight="bold" font-size="33.0" fill="#000000" transform="matrix(1.00, 0.00, -0.00, -1.00, 352.0, 2.0)">R</text><text xml:space="preserve" font-family="Montserrat-SemiBoldItalic" font-style="italic" font-weight="bold" font-size="33.0" fill="#000000" transform="matrix(1.00, 0.00, -0.00, -1.00, 383.2, 2.0)">N</text><text xml:space="preserve" font-family="Montserrat-SemiBoldItalic" font-style="italic" font-weight="bold" font-size="33.0" fill="#000000" transform="matrix(1.00, 0.00, -0.00, -1.00, 417.0, 2.0)">I</text><text xml:space="preserve" font-family="Montserrat-SemiBoldItalic" font-style="italic" font-weight="bold" font-size="33.0" fill="#000000" transform="matrix(1.00, 0.00, -0.00, -1.00, 434.6, 2.0)">Z</text><text xml:space="preserve" font-family="Montserrat-SemiBoldItalic" font-style="italic" font-weight="bold" font-size="33.0" fill="#000000" transform="matrix(1.00, 0.00, -0.00, -1.00, 463.6, 2.0)">A</text><text xml:space="preserve" font-family="Montserrat-SemiBoldItalic" font-style="italic" font-weight="bold" font-size="33.0" fill="#000000" transform="matrix(1.00, 0.00, -0.00, -1.00, 494.2, 2.0)">T</text><text xml:space="preserve" font-family="Montserrat-SemiBoldItalic" font-style="italic" font-weight="bold" font-size="33.0" fill="#000000" transform="matrix(1.00, 0.00, -0.00, -1.00, 521.1, 2.0)">I</text><text xml:space="preserve" font-family="Montserrat-SemiBoldItalic" font-style="italic" font-weight="bold" font-size="33.0" fill="#000000" transform="matrix(1.00, 0.00, -0.00, -1.00, 538.7, 2.0)">O</text><text xml:space="preserve" font-family="Montserrat-SemiBoldItalic" font-style="italic" font-weight="bold" font-size="33.0" fill="#000000" transform="matrix(1.00, 0.00, -0.00, -1.00, 573.6, 2.0)">N</text><text xml:space="preserve" font-family="Montserrat-SemiBoldItalic" font-style="italic" font-weight="bold" font-size="33.0" fill="#000000" transform="matrix(1.00, 0.00, -0.00, -1.00, 607.4, 2.0)"> </text><text xml:space="preserve" font-family="Montserrat-SemiBoldItalic" font-style="italic" font-weight="bold" font-size="33.0" fill="#000000" transform="matrix(1.00, 0.00, -0.00, -1.00, 623.6, 2.0)">T</text><text xml:space="preserve" font-family="Montserrat-SemiBoldItalic" font-style="italic" font-weight="bold" font-size="33.0" fill="#000000" transform="matrix(1.00, 0.00, -0.00, -1.00, 650.5, 2.0)">E</text><text xml:space="preserve" font-family="Montserrat-SemiBoldItalic" font-style="italic" font-weight="bold" font-size="33.0" fill="#000000" transform="matrix(1.00, 0.00, -0.00, -1.00, 679.7, 2.0)">A</text><text xml:space="preserve" font-family="Montserrat-SemiBoldItalic" font-style="italic" font-weight="bold" font-size="33.0" fill="#000000" transform="matrix(1.00, 0.00, -0.00, -1.00, 711.5, 2.0)">M</text><text xml:space="preserve" font-family="Montserrat-SemiBoldItalic" font-style="italic" font-weight="bold" font-size="33.0" fill="#000000" transform="matrix(1.00, 0.00, -0.00, -1.00, 750.1, 2.0)">”</text></g></svg>