<?xml version="1.0" encoding="UTF-8"?><svg xmlns="http://www.w3.org/2000/svg" xmlns:xlink="http://www.w3.org/1999/xlink" clip-rule="evenodd" stroke-miterlimit="4.00" viewBox="0 0 280 28"><desc>SVG generated by Keynote</desc><defs></defs><g transform="matrix(1.00, 0.00, -0.00, -1.00, 0.0, 28.0)"><text xml:space="preserve" font-family="Montserrat-Bold" font-weight="bold" font-size="33.0" fill="#000000" transform="matrix(1.00, 0.00, -0.00, -1.00, 3.0, 2.0)">A</text><text xml:space="preserve" font-family="Montserrat-Bold" font-weight="bold" font-size="33.0" fill="#000000" transform="matrix(1.00, 0.00, -0.00, -1.00, 35.3, 2.0)">I</text><text xml:space="preserve" font-family="Montserrat-Bold" font-weight="bold" font-size="33.0" fill="#000000" transform="matrix(1.00, 0.00, -0.00, -1.00, 53.2, 2.0)">R</text><text xml:space="preserve" font-family="Montserrat-Bold" font-weight="bold" font-size="33.0" fill="#000000" transform="matrix(1.00, 0.00, -0.00, -1.00, 84.6, 2.0)"> </text><text xml:space="preserve" font-family="Montserrat-Bold" font-weight="bold" font-size="33.0" fill="#000000" transform="matrix(1.00, 0.00, -0.00, -1.00, 101.0, 2.0)">F</text><text xml:space="preserve" font-family="Montserrat-Bold" font-weight="bold" font-size="33.0" fill="#000000" transform="matrix(1.00, 0.00, -0.00, -1.00, 129.1, 2.0)">R</text><text xml:space="preserve" font-family="Montserrat-Bold" font-weight="bold" font-size="33.0" fill="#000000" transform="matrix(1.00, 0.00, -0.00, -1.00, 160.5, 2.0)">A</text><text xml:space="preserve" font-family="Montserrat-Bold" font-weight="bold" font-size="33.0" fill="#000000" transform="matrix(1.00, 0.00, -0.00, -1.00, 192.8, 2.0)">N</text><text xml:space="preserve" font-family="Montserrat-Bold" font-weight="bold" font-size="33.0" fill="#000000" transform="matrix(1.00, 0.00, -0.00, -1.00, 226.6, 2.0)">C</text><text xml:space="preserve" font-family="Montserrat-Bold" font-weight="bold" font-size="33.0" fill="#000000" transform="matrix(1.00, 0.00, -0.00, -1.00, 257.8, 2.0)">E</text></g></svg>