<?xml version="1.0" encoding="UTF-8"?><svg xmlns="http://www.w3.org/2000/svg" xmlns:xlink="http://www.w3.org/1999/xlink" clip-rule="evenodd" stroke-miterlimit="4.00" viewBox="0 0 638 54"><desc>SVG generated by Keynote</desc><defs></defs><g transform="matrix(1.00, 0.00, -0.00, -1.00, 0.0, 54.0)"><text xml:space="preserve" font-family="Montserrat-Bold" font-weight="bold" font-size="50.0" fill="#EF1312" transform="matrix(1.00, 0.00, -0.00, -1.00, 2.0, 13.0)">f</text><text xml:space="preserve" font-family="Montserrat-Bold" font-weight="bold" font-size="50.0" fill="#EF1312" transform="matrix(1.00, 0.00, -0.00, -1.00, 21.4, 13.0)">l</text><text xml:space="preserve" font-family="Montserrat-Bold" font-weight="bold" font-size="50.0" fill="#EF1312" transform="matrix(1.00, 0.00, -0.00, -1.00, 36.4, 13.0)">i</text><text xml:space="preserve" font-family="Montserrat-Bold" font-weight="bold" font-size="50.0" fill="#EF1312" transform="matrix(1.00, 0.00, -0.00, -1.00, 51.5, 13.0)">g</text><text xml:space="preserve" font-family="Montserrat-Bold" font-weight="bold" font-size="50.0" fill="#EF1312" transform="matrix(1.00, 0.00, -0.00, -1.00, 86.5, 13.0)">h</text><text xml:space="preserve" font-family="Montserrat-Bold" font-weight="bold" font-size="50.0" fill="#EF1312" transform="matrix(1.00, 0.00, -0.00, -1.00, 121.0, 13.0)">t</text><text xml:space="preserve" font-family="Montserrat-Bold" font-weight="bold" font-size="50.0" fill="#EF1312" transform="matrix(1.00, 0.00, -0.00, -1.00, 142.8, 13.0)"> </text><text xml:space="preserve" font-family="Montserrat-Bold" font-weight="bold" font-size="50.0" fill="#EF1312" transform="matrix(1.00, 0.00, -0.00, -1.00, 156.9, 13.0)">a</text><text xml:space="preserve" font-family="Montserrat-Bold" font-weight="bold" font-size="50.0" fill="#EF1312" transform="matrix(1.00, 0.00, -0.00, -1.00, 187.8, 13.0)">t</text><text xml:space="preserve" font-family="Montserrat-Bold" font-weight="bold" font-size="50.0" fill="#EF1312" transform="matrix(1.00, 0.00, -0.00, -1.00, 208.9, 13.0)">t</text><text xml:space="preserve" font-family="Montserrat-Bold" font-weight="bold" font-size="50.0" fill="#EF1312" transform="matrix(1.00, 0.00, -0.00, -1.00, 229.8, 13.0)">e</text><text xml:space="preserve" font-family="Montserrat-Bold" font-weight="bold" font-size="50.0" fill="#EF1312" transform="matrix(1.00, 0.00, -0.00, -1.00, 261.4, 13.0)">n</text><text xml:space="preserve" font-family="Montserrat-Bold" font-weight="bold" font-size="50.0" fill="#EF1312" transform="matrix(1.00, 0.00, -0.00, -1.00, 296.2, 13.0)">d</text><text xml:space="preserve" font-family="Montserrat-Bold" font-weight="bold" font-size="50.0" fill="#EF1312" transform="matrix(1.00, 0.00, -0.00, -1.00, 330.8, 13.0)">a</text><text xml:space="preserve" font-family="Montserrat-Bold" font-weight="bold" font-size="50.0" fill="#EF1312" transform="matrix(1.00, 0.00, -0.00, -1.00, 361.7, 13.0)">n</text><text xml:space="preserve" font-family="Montserrat-Bold" font-weight="bold" font-size="50.0" fill="#EF1312" transform="matrix(1.00, 0.00, -0.00, -1.00, 396.2, 13.0)">t</text><text xml:space="preserve" font-family="Montserrat-Bold" font-weight="bold" font-size="50.0" fill="#EF1312" transform="matrix(1.00, 0.00, -0.00, -1.00, 418.0, 13.0)">s</text><text xml:space="preserve" font-family="Montserrat-Bold" font-weight="bold" font-size="50.0" fill="#EF1312" transform="matrix(1.00, 0.00, -0.00, -1.00, 444.5, 13.0)"> </text><text xml:space="preserve" font-family="Montserrat-Bold" font-weight="bold" font-size="50.0" fill="#EF1312" transform="matrix(1.00, 0.00, -0.00, -1.00, 458.7, 13.0)">i</text><text xml:space="preserve" font-family="Montserrat-Bold" font-weight="bold" font-size="50.0" fill="#EF1312" transform="matrix(1.00, 0.00, -0.00, -1.00, 473.7, 13.0)">n</text><text xml:space="preserve" font-family="Montserrat-Bold" font-weight="bold" font-size="50.0" fill="#EF1312" transform="matrix(1.00, 0.00, -0.00, -1.00, 508.3, 13.0)"> </text><text xml:space="preserve" font-family="Montserrat-Bold" font-weight="bold" font-size="50.0" fill="#EF1312" transform="matrix(1.00, 0.00, -0.00, -1.00, 522.4, 13.0)">2</text><text xml:space="preserve" font-family="Montserrat-Bold" font-weight="bold" font-size="50.0" fill="#EF1312" transform="matrix(1.00, 0.00, -0.00, -1.00, 551.8, 13.0)">0</text><text xml:space="preserve" font-family="Montserrat-Bold" font-weight="bold" font-size="50.0" fill="#EF1312" transform="matrix(1.00, 0.00, -0.00, -1.00, 585.5, 13.0)">1</text><text xml:space="preserve" font-family="Montserrat-Bold" font-weight="bold" font-size="50.0" fill="#EF1312" transform="matrix(1.00, 0.00, -0.00, -1.00, 605.1, 13.0)">8</text></g></svg>