<?xml version="1.0" encoding="UTF-8"?><svg xmlns="http://www.w3.org/2000/svg" xmlns:xlink="http://www.w3.org/1999/xlink" clip-rule="evenodd" stroke-miterlimit="4.00" viewBox="0 0 873 114"><desc>SVG generated by Keynote</desc><defs></defs><g transform="matrix(1.00, 0.00, -0.00, -1.00, 0.0, 114.0)"><text xml:space="preserve" font-family="Montserrat-Bold" font-weight="bold" font-size="138.0" fill="#000000" transform="matrix(1.00, 0.00, -0.00, -1.00, -2.0, 4.0)">S</text><text xml:space="preserve" font-family="Montserrat-Bold" font-weight="bold" font-size="138.0" fill="#000000" transform="matrix(1.00, 0.00, -0.00, -1.00, 86.0, 4.0)">u</text><text xml:space="preserve" font-family="Montserrat-Bold" font-weight="bold" font-size="138.0" fill="#000000" transform="matrix(1.00, 0.00, -0.00, -1.00, 180.9, 4.0)">b</text><text xml:space="preserve" font-family="Montserrat-Bold" font-weight="bold" font-size="138.0" fill="#000000" transform="matrix(1.00, 0.00, -0.00, -1.00, 276.1, 4.0)">s</text><text xml:space="preserve" font-family="Montserrat-Bold" font-weight="bold" font-size="138.0" fill="#000000" transform="matrix(1.00, 0.00, -0.00, -1.00, 349.3, 4.0)">i</text><text xml:space="preserve" font-family="Montserrat-Bold" font-weight="bold" font-size="138.0" fill="#000000" transform="matrix(1.00, 0.00, -0.00, -1.00, 390.9, 4.0)">d</text><text xml:space="preserve" font-family="Montserrat-Bold" font-weight="bold" font-size="138.0" fill="#000000" transform="matrix(1.00, 0.00, -0.00, -1.00, 486.4, 4.0)">i</text><text xml:space="preserve" font-family="Montserrat-Bold" font-weight="bold" font-size="138.0" fill="#000000" transform="matrix(1.00, 0.00, -0.00, -1.00, 527.9, 4.0)">a</text><text xml:space="preserve" font-family="Montserrat-Bold" font-weight="bold" font-size="138.0" fill="#000000" transform="matrix(1.00, 0.00, -0.00, -1.00, 613.1, 4.0)">r</text><text xml:space="preserve" font-family="Montserrat-Bold" font-weight="bold" font-size="138.0" fill="#000000" transform="matrix(1.00, 0.00, -0.00, -1.00, 672.0, 4.0)">i</text><text xml:space="preserve" font-family="Montserrat-Bold" font-weight="bold" font-size="138.0" fill="#000000" transform="matrix(1.00, 0.00, -0.00, -1.00, 713.5, 4.0)">e</text><text xml:space="preserve" font-family="Montserrat-Bold" font-weight="bold" font-size="138.0" fill="#000000" transform="matrix(1.00, 0.00, -0.00, -1.00, 800.6, 4.0)">s</text></g></svg>