<?xml version="1.0" encoding="UTF-8"?><svg xmlns="http://www.w3.org/2000/svg" xmlns:xlink="http://www.w3.org/1999/xlink" clip-rule="evenodd" stroke-miterlimit="4.00" viewBox="0 0 648 70"><desc>SVG generated by Keynote</desc><defs></defs><g transform="matrix(1.00, 0.00, -0.00, -1.00, 0.0, 70.0)"><text xml:space="preserve" font-family="Montserrat-Bold" font-weight="bold" font-size="90.0" fill="#FFFFFF" transform="matrix(1.00, 0.00, -0.00, -1.00, 2.0, 4.0)">1</text><text xml:space="preserve" font-family="Montserrat-Bold" font-weight="bold" font-size="90.0" fill="#FFFFFF" transform="matrix(1.00, 0.00, -0.00, -1.00, 37.3, 4.0)">0</text><text xml:space="preserve" font-family="Montserrat-Bold" font-weight="bold" font-size="90.0" fill="#FFFFFF" transform="matrix(1.00, 0.00, -0.00, -1.00, 97.8, 4.0)">1</text><text xml:space="preserve" font-family="Montserrat-Bold" font-weight="bold" font-size="90.0" fill="#FFFFFF" transform="matrix(1.00, 0.00, -0.00, -1.00, 133.1, 4.0)">.</text><text xml:space="preserve" font-family="Montserrat-Bold" font-weight="bold" font-size="90.0" fill="#FFFFFF" transform="matrix(1.00, 0.00, -0.00, -1.00, 156.7, 4.0)">4</text><text xml:space="preserve" font-family="Montserrat-Bold" font-weight="bold" font-size="90.0" fill="#FFFFFF" transform="matrix(1.00, 0.00, -0.00, -1.00, 218.7, 4.0)"> </text><text xml:space="preserve" font-family="Montserrat-Bold" font-weight="bold" font-size="90.0" fill="#FFFFFF" transform="matrix(1.00, 0.00, -0.00, -1.00, 244.2, 4.0)">M</text><text xml:space="preserve" font-family="Montserrat-Bold" font-weight="bold" font-size="90.0" fill="#FFFFFF" transform="matrix(1.00, 0.00, -0.00, -1.00, 330.1, 4.0)">I</text><text xml:space="preserve" font-family="Montserrat-Bold" font-weight="bold" font-size="90.0" fill="#FFFFFF" transform="matrix(1.00, 0.00, -0.00, -1.00, 359.7, 4.0)">L</text><text xml:space="preserve" font-family="Montserrat-Bold" font-weight="bold" font-size="90.0" fill="#FFFFFF" transform="matrix(1.00, 0.00, -0.00, -1.00, 414.0, 4.0)">L</text><text xml:space="preserve" font-family="Montserrat-Bold" font-weight="bold" font-size="90.0" fill="#FFFFFF" transform="matrix(1.00, 0.00, -0.00, -1.00, 468.4, 4.0)">I</text><text xml:space="preserve" font-family="Montserrat-Bold" font-weight="bold" font-size="90.0" fill="#FFFFFF" transform="matrix(1.00, 0.00, -0.00, -1.00, 497.9, 4.0)">O</text><text xml:space="preserve" font-family="Montserrat-Bold" font-weight="bold" font-size="90.0" fill="#FFFFFF" transform="matrix(1.00, 0.00, -0.00, -1.00, 573.9, 4.0)">N</text><text xml:space="preserve" font-family="Montserrat-Bold" font-weight="bold" font-size="90.0" fill="#FFFFFF" transform="matrix(1.00, 0.00, -0.00, -1.00, 646.6, 4.0)"> </text></g></svg>