<?xml version="1.0" encoding="UTF-8"?><svg xmlns="http://www.w3.org/2000/svg" xmlns:xlink="http://www.w3.org/1999/xlink" clip-rule="evenodd" stroke-miterlimit="4.00" viewBox="0 0 463 178"><desc>SVG generated by Keynote</desc><defs></defs><g transform="matrix(1.00, 0.00, -0.00, -1.00, 0.0, 178.0)"><text xml:space="preserve" font-family="Montserrat-Regular" font-size="87.6" fill="#000000" transform="matrix(1.00, 0.00, -0.00, -1.00, 0.1, 92.1)">•</text><text xml:space="preserve" font-family="Montserrat-Regular" font-size="29.0" fill="#000000" transform="matrix(1.00, 0.00, -0.00, -1.00, 26.0, 107.0)"> </text><text xml:space="preserve" font-family="Montserrat-Regular" font-size="29.0" fill="#000000" transform="matrix(1.00, 0.00, -0.00, -1.00, 39.8, 107.0)">P</text><text xml:space="preserve" font-family="Montserrat-Regular" font-size="29.0" fill="#000000" transform="matrix(1.00, 0.00, -0.00, -1.00, 66.4, 107.0)">a</text><text xml:space="preserve" font-family="Montserrat-Regular" font-size="29.0" fill="#000000" transform="matrix(1.00, 0.00, -0.00, -1.00, 89.7, 107.0)">s</text><text xml:space="preserve" font-family="Montserrat-Regular" font-size="29.0" fill="#000000" transform="matrix(1.00, 0.00, -0.00, -1.00, 110.1, 107.0)">s</text><text xml:space="preserve" font-family="Montserrat-Regular" font-size="29.0" fill="#000000" transform="matrix(1.00, 0.00, -0.00, -1.00, 130.5, 107.0)">e</text><text xml:space="preserve" font-family="Montserrat-Regular" font-size="29.0" fill="#000000" transform="matrix(1.00, 0.00, -0.00, -1.00, 154.3, 107.0)">n</text><text xml:space="preserve" font-family="Montserrat-Regular" font-size="29.0" fill="#000000" transform="matrix(1.00, 0.00, -0.00, -1.00, 180.2, 107.0)">g</text><text xml:space="preserve" font-family="Montserrat-Regular" font-size="29.0" fill="#000000" transform="matrix(1.00, 0.00, -0.00, -1.00, 206.3, 107.0)">e</text><text xml:space="preserve" font-family="Montserrat-Regular" font-size="29.0" fill="#000000" transform="matrix(1.00, 0.00, -0.00, -1.00, 230.0, 107.0)">r</text><text xml:space="preserve" font-family="Montserrat-Regular" font-size="29.0" fill="#000000" transform="matrix(1.00, 0.00, -0.00, -1.00, 247.9, 107.0)"> </text><text xml:space="preserve" font-family="Montserrat-Regular" font-size="29.0" fill="#000000" transform="matrix(1.00, 0.00, -0.00, -1.00, 261.7, 107.0)">T</text><text xml:space="preserve" font-family="Montserrat-Regular" font-size="29.0" fill="#000000" transform="matrix(1.00, 0.00, -0.00, -1.00, 284.1, 107.0)">r</text><text xml:space="preserve" font-family="Montserrat-Regular" font-size="29.0" fill="#000000" transform="matrix(1.00, 0.00, -0.00, -1.00, 301.7, 107.0)">a</text><text xml:space="preserve" font-family="Montserrat-Regular" font-size="29.0" fill="#000000" transform="matrix(1.00, 0.00, -0.00, -1.00, 325.0, 107.0)">n</text><text xml:space="preserve" font-family="Montserrat-Regular" font-size="29.0" fill="#000000" transform="matrix(1.00, 0.00, -0.00, -1.00, 350.9, 107.0)">s</text><text xml:space="preserve" font-family="Montserrat-Regular" font-size="29.0" fill="#000000" transform="matrix(1.00, 0.00, -0.00, -1.00, 371.3, 107.0)">p</text><text xml:space="preserve" font-family="Montserrat-Regular" font-size="29.0" fill="#000000" transform="matrix(1.00, 0.00, -0.00, -1.00, 397.1, 107.0)">o</text><text xml:space="preserve" font-family="Montserrat-Regular" font-size="29.0" fill="#000000" transform="matrix(1.00, 0.00, -0.00, -1.00, 421.5, 107.0)">r</text><text xml:space="preserve" font-family="Montserrat-Regular" font-size="29.0" fill="#000000" transform="matrix(1.00, 0.00, -0.00, -1.00, 439.8, 107.0)">t</text><text xml:space="preserve" font-family="Montserrat-Regular" font-size="29.0" fill="#000000" transform="matrix(1.00, 0.00, -0.00, -1.00, 457.8, 107.0)"> </text><text xml:space="preserve" font-family="Montserrat-Regular" font-size="87.6" fill="#000000" transform="matrix(1.00, 0.00, -0.00, -1.00, 0.1, 57.1)">•</text><text xml:space="preserve" font-family="Montserrat-Regular" font-size="29.0" fill="#000000" transform="matrix(1.00, 0.00, -0.00, -1.00, 26.0, 72.0)"> </text><text xml:space="preserve" font-family="Montserrat-Regular" font-size="29.0" fill="#000000" transform="matrix(1.00, 0.00, -0.00, -1.00, 39.8, 72.0)">C</text><text xml:space="preserve" font-family="Montserrat-Regular" font-size="29.0" fill="#000000" transform="matrix(1.00, 0.00, -0.00, -1.00, 66.6, 72.0)">a</text><text xml:space="preserve" font-family="Montserrat-Regular" font-size="29.0" fill="#000000" transform="matrix(1.00, 0.00, -0.00, -1.00, 90.0, 72.0)">r</text><text xml:space="preserve" font-family="Montserrat-Regular" font-size="29.0" fill="#000000" transform="matrix(1.00, 0.00, -0.00, -1.00, 107.4, 72.0)">g</text><text xml:space="preserve" font-family="Montserrat-Regular" font-size="29.0" fill="#000000" transform="matrix(1.00, 0.00, -0.00, -1.00, 133.5, 72.0)">o</text><text xml:space="preserve" font-family="Montserrat-Regular" font-size="29.0" fill="#000000" transform="matrix(1.00, 0.00, -0.00, -1.00, 157.9, 72.0)"> </text><text xml:space="preserve" font-family="Montserrat-Regular" font-size="29.0" fill="#000000" transform="matrix(1.00, 0.00, -0.00, -1.00, 171.8, 72.0)">T</text><text xml:space="preserve" font-family="Montserrat-Regular" font-size="29.0" fill="#000000" transform="matrix(1.00, 0.00, -0.00, -1.00, 194.2, 72.0)">r</text><text xml:space="preserve" font-family="Montserrat-Regular" font-size="29.0" fill="#000000" transform="matrix(1.00, 0.00, -0.00, -1.00, 211.8, 72.0)">a</text><text xml:space="preserve" font-family="Montserrat-Regular" font-size="29.0" fill="#000000" transform="matrix(1.00, 0.00, -0.00, -1.00, 235.1, 72.0)">n</text><text xml:space="preserve" font-family="Montserrat-Regular" font-size="29.0" fill="#000000" transform="matrix(1.00, 0.00, -0.00, -1.00, 261.0, 72.0)">s</text><text xml:space="preserve" font-family="Montserrat-Regular" font-size="29.0" fill="#000000" transform="matrix(1.00, 0.00, -0.00, -1.00, 281.4, 72.0)">p</text><text xml:space="preserve" font-family="Montserrat-Regular" font-size="29.0" fill="#000000" transform="matrix(1.00, 0.00, -0.00, -1.00, 307.2, 72.0)">o</text><text xml:space="preserve" font-family="Montserrat-Regular" font-size="29.0" fill="#000000" transform="matrix(1.00, 0.00, -0.00, -1.00, 331.6, 72.0)">r</text><text xml:space="preserve" font-family="Montserrat-Regular" font-size="29.0" fill="#000000" transform="matrix(1.00, 0.00, -0.00, -1.00, 349.9, 72.0)">t</text><text xml:space="preserve" font-family="Montserrat-Regular" font-size="29.0" fill="#000000" transform="matrix(1.00, 0.00, -0.00, -1.00, 367.9, 72.0)"> </text><text xml:space="preserve" font-family="Montserrat-Regular" font-size="87.6" fill="#000000" transform="matrix(1.00, 0.00, -0.00, -1.00, 0.1, 22.1)">•</text><text xml:space="preserve" font-family="Montserrat-Regular" font-size="29.0" fill="#000000" transform="matrix(1.00, 0.00, -0.00, -1.00, 26.0, 37.0)"> </text><text xml:space="preserve" font-family="Montserrat-Regular" font-size="29.0" fill="#000000" transform="matrix(1.00, 0.00, -0.00, -1.00, 39.8, 37.0)">A</text><text xml:space="preserve" font-family="Montserrat-Regular" font-size="29.0" fill="#000000" transform="matrix(1.00, 0.00, -0.00, -1.00, 66.8, 37.0)">i</text><text xml:space="preserve" font-family="Montserrat-Regular" font-size="29.0" fill="#000000" transform="matrix(1.00, 0.00, -0.00, -1.00, 80.8, 37.0)">r</text><text xml:space="preserve" font-family="Montserrat-Regular" font-size="29.0" fill="#000000" transform="matrix(1.00, 0.00, -0.00, -1.00, 98.3, 37.0)">c</text><text xml:space="preserve" font-family="Montserrat-Regular" font-size="29.0" fill="#000000" transform="matrix(1.00, 0.00, -0.00, -1.00, 120.8, 37.0)">r</text><text xml:space="preserve" font-family="Montserrat-Regular" font-size="29.0" fill="#000000" transform="matrix(1.00, 0.00, -0.00, -1.00, 138.4, 37.0)">a</text><text xml:space="preserve" font-family="Montserrat-Regular" font-size="29.0" fill="#000000" transform="matrix(1.00, 0.00, -0.00, -1.00, 161.8, 37.0)">f</text><text xml:space="preserve" font-family="Montserrat-Regular" font-size="29.0" fill="#000000" transform="matrix(1.00, 0.00, -0.00, -1.00, 177.8, 37.0)">t</text><text xml:space="preserve" font-family="Montserrat-Regular" font-size="29.0" fill="#000000" transform="matrix(1.00, 0.00, -0.00, -1.00, 195.8, 37.0)"> </text><text xml:space="preserve" font-family="Montserrat-Regular" font-size="29.0" fill="#000000" transform="matrix(1.00, 0.00, -0.00, -1.00, 209.6, 37.0)">M</text><text xml:space="preserve" font-family="Montserrat-Regular" font-size="29.0" fill="#000000" transform="matrix(1.00, 0.00, -0.00, -1.00, 243.5, 37.0)">a</text><text xml:space="preserve" font-family="Montserrat-Regular" font-size="29.0" fill="#000000" transform="matrix(1.00, 0.00, -0.00, -1.00, 266.8, 37.0)">i</text><text xml:space="preserve" font-family="Montserrat-Regular" font-size="29.0" fill="#000000" transform="matrix(1.00, 0.00, -0.00, -1.00, 280.8, 37.0)">n</text><text xml:space="preserve" font-family="Montserrat-Regular" font-size="29.0" fill="#000000" transform="matrix(1.00, 0.00, -0.00, -1.00, 306.7, 37.0)">t</text><text xml:space="preserve" font-family="Montserrat-Regular" font-size="29.0" fill="#000000" transform="matrix(1.00, 0.00, -0.00, -1.00, 324.1, 37.0)">e</text><text xml:space="preserve" font-family="Montserrat-Regular" font-size="29.0" fill="#000000" transform="matrix(1.00, 0.00, -0.00, -1.00, 347.9, 37.0)">n</text><text xml:space="preserve" font-family="Montserrat-Regular" font-size="29.0" fill="#000000" transform="matrix(1.00, 0.00, -0.00, -1.00, 373.7, 37.0)">a</text><text xml:space="preserve" font-family="Montserrat-Regular" font-size="29.0" fill="#000000" transform="matrix(1.00, 0.00, -0.00, -1.00, 397.0, 37.0)">n</text><text xml:space="preserve" font-family="Montserrat-Regular" font-size="29.0" fill="#000000" transform="matrix(1.00, 0.00, -0.00, -1.00, 422.9, 37.0)">c</text><text xml:space="preserve" font-family="Montserrat-Regular" font-size="29.0" fill="#000000" transform="matrix(1.00, 0.00, -0.00, -1.00, 445.2, 37.0)">e</text></g></svg>