<?xml version="1.0" encoding="UTF-8"?><svg xmlns="http://www.w3.org/2000/svg" xmlns:xlink="http://www.w3.org/1999/xlink" clip-rule="evenodd" stroke-miterlimit="4.00" viewBox="0 0 406 28"><desc>SVG generated by Keynote</desc><defs></defs><g transform="matrix(1.00, 0.00, -0.00, -1.00, 0.0, 28.0)"><text xml:space="preserve" font-family="Montserrat-Bold" font-weight="bold" font-size="33.0" fill="#000000" transform="matrix(1.00, 0.00, -0.00, -1.00, -1.0, 2.0)">F</text><text xml:space="preserve" font-family="Montserrat-Bold" font-weight="bold" font-size="33.0" fill="#000000" transform="matrix(1.00, 0.00, -0.00, -1.00, 26.9, 2.0)">O</text><text xml:space="preserve" font-family="Montserrat-Bold" font-weight="bold" font-size="33.0" fill="#000000" transform="matrix(1.00, 0.00, -0.00, -1.00, 61.9, 2.0)">U</text><text xml:space="preserve" font-family="Montserrat-Bold" font-weight="bold" font-size="33.0" fill="#000000" transform="matrix(1.00, 0.00, -0.00, -1.00, 94.9, 2.0)">N</text><text xml:space="preserve" font-family="Montserrat-Bold" font-weight="bold" font-size="33.0" fill="#000000" transform="matrix(1.00, 0.00, -0.00, -1.00, 128.7, 2.0)">D</text><text xml:space="preserve" font-family="Montserrat-Bold" font-weight="bold" font-size="33.0" fill="#000000" transform="matrix(1.00, 0.00, -0.00, -1.00, 163.0, 2.0)">E</text><text xml:space="preserve" font-family="Montserrat-Bold" font-weight="bold" font-size="33.0" fill="#000000" transform="matrix(1.00, 0.00, -0.00, -1.00, 192.2, 2.0)">D</text><text xml:space="preserve" font-family="Montserrat-Bold" font-weight="bold" font-size="33.0" fill="#000000" transform="matrix(1.00, 0.00, -0.00, -1.00, 226.5, 2.0)"> </text><text xml:space="preserve" font-family="Montserrat-Bold" font-weight="bold" font-size="33.0" fill="#000000" transform="matrix(1.00, 0.00, -0.00, -1.00, 242.9, 2.0)">I</text><text xml:space="preserve" font-family="Montserrat-Bold" font-weight="bold" font-size="33.0" fill="#000000" transform="matrix(1.00, 0.00, -0.00, -1.00, 260.8, 2.0)">N</text><text xml:space="preserve" font-family="Montserrat-Bold" font-weight="bold" font-size="33.0" fill="#000000" transform="matrix(1.00, 0.00, -0.00, -1.00, 294.6, 2.0)"> </text><text xml:space="preserve" font-family="Montserrat-Bold" font-weight="bold" font-size="33.0" fill="#000000" transform="matrix(1.00, 0.00, -0.00, -1.00, 311.0, 2.0)">1</text><text xml:space="preserve" font-family="Montserrat-Bold" font-weight="bold" font-size="33.0" fill="#000000" transform="matrix(1.00, 0.00, -0.00, -1.00, 331.0, 2.0)">9</text><text xml:space="preserve" font-family="Montserrat-Bold" font-weight="bold" font-size="33.0" fill="#000000" transform="matrix(1.00, 0.00, -0.00, -1.00, 358.8, 2.0)">3</text><text xml:space="preserve" font-family="Montserrat-Bold" font-weight="bold" font-size="33.0" fill="#000000" transform="matrix(1.00, 0.00, -0.00, -1.00, 385.2, 2.0)">3</text></g></svg>