<?xml version="1.0" encoding="UTF-8"?><svg xmlns="http://www.w3.org/2000/svg" xmlns:xlink="http://www.w3.org/1999/xlink" clip-rule="evenodd" stroke-miterlimit="4.00" viewBox="0 0 925 28"><desc>SVG generated by Keynote</desc><defs></defs><g transform="matrix(1.00, 0.00, -0.00, -1.00, 0.0, 28.0)"><text xml:space="preserve" font-family="Montserrat-Bold" font-weight="bold" font-size="33.0" fill="#000000" transform="matrix(1.00, 0.00, -0.00, -1.00, 1.0, 2.0)">C</text><text xml:space="preserve" font-family="Montserrat-Bold" font-weight="bold" font-size="33.0" fill="#000000" transform="matrix(1.00, 0.00, -0.00, -1.00, 32.3, 2.0)">E</text><text xml:space="preserve" font-family="Montserrat-Bold" font-weight="bold" font-size="33.0" fill="#000000" transform="matrix(1.00, 0.00, -0.00, -1.00, 61.4, 2.0)">O</text><text xml:space="preserve" font-family="Montserrat-Bold" font-weight="bold" font-size="33.0" fill="#000000" transform="matrix(1.00, 0.00, -0.00, -1.00, 96.3, 2.0)"> </text><text xml:space="preserve" font-family="Montserrat-Bold" font-weight="bold" font-size="33.0" fill="#000000" transform="matrix(1.00, 0.00, -0.00, -1.00, 112.7, 2.0)">2</text><text xml:space="preserve" font-family="Montserrat-Bold" font-weight="bold" font-size="33.0" fill="#000000" transform="matrix(1.00, 0.00, -0.00, -1.00, 139.2, 2.0)">0</text><text xml:space="preserve" font-family="Montserrat-Bold" font-weight="bold" font-size="33.0" fill="#000000" transform="matrix(1.00, 0.00, -0.00, -1.00, 168.5, 2.0)">1</text><text xml:space="preserve" font-family="Montserrat-Bold" font-weight="bold" font-size="33.0" fill="#000000" transform="matrix(1.00, 0.00, -0.00, -1.00, 188.5, 2.0)">8</text><text xml:space="preserve" font-family="Montserrat-Bold" font-weight="bold" font-size="33.0" fill="#000000" transform="matrix(1.00, 0.00, -0.00, -1.00, 217.4, 2.0)"> </text><text xml:space="preserve" font-family="Montserrat-Bold" font-weight="bold" font-size="33.0" fill="#000000" transform="matrix(1.00, 0.00, -0.00, -1.00, 233.8, 2.0)">-</text><text xml:space="preserve" font-family="Montserrat-Bold" font-weight="bold" font-size="33.0" fill="#000000" transform="matrix(1.00, 0.00, -0.00, -1.00, 253.6, 2.0)"> </text><text xml:space="preserve" font-family="Montserrat-Bold" font-weight="bold" font-size="33.0" fill="#000000" transform="matrix(1.00, 0.00, -0.00, -1.00, 270.0, 2.0)">P</text><text xml:space="preserve" font-family="Montserrat-Bold" font-weight="bold" font-size="33.0" fill="#000000" transform="matrix(1.00, 0.00, -0.00, -1.00, 300.9, 2.0)">R</text><text xml:space="preserve" font-family="Montserrat-Bold" font-weight="bold" font-size="33.0" fill="#000000" transform="matrix(1.00, 0.00, -0.00, -1.00, 332.2, 2.0)">E</text><text xml:space="preserve" font-family="Montserrat-Bold" font-weight="bold" font-size="33.0" fill="#000000" transform="matrix(1.00, 0.00, -0.00, -1.00, 361.4, 2.0)">S</text><text xml:space="preserve" font-family="Montserrat-Bold" font-weight="bold" font-size="33.0" fill="#000000" transform="matrix(1.00, 0.00, -0.00, -1.00, 389.6, 2.0)">E</text><text xml:space="preserve" font-family="Montserrat-Bold" font-weight="bold" font-size="33.0" fill="#000000" transform="matrix(1.00, 0.00, -0.00, -1.00, 418.8, 2.0)">N</text><text xml:space="preserve" font-family="Montserrat-Bold" font-weight="bold" font-size="33.0" fill="#000000" transform="matrix(1.00, 0.00, -0.00, -1.00, 452.5, 2.0)">T</text><text xml:space="preserve" font-family="Montserrat-Bold" font-weight="bold" font-size="33.0" fill="#000000" transform="matrix(1.00, 0.00, -0.00, -1.00, 480.0, 2.0)"> </text><text xml:space="preserve" font-family="Montserrat-Bold" font-weight="bold" font-size="33.0" fill="#000000" transform="matrix(1.00, 0.00, -0.00, -1.00, 496.4, 2.0)">:</text><text xml:space="preserve" font-family="Montserrat-Bold" font-weight="bold" font-size="33.0" fill="#000000" transform="matrix(1.00, 0.00, -0.00, -1.00, 512.1, 2.0)"> </text><text xml:space="preserve" font-family="Montserrat-Bold" font-weight="bold" font-size="33.0" fill="#000000" transform="matrix(1.00, 0.00, -0.00, -1.00, 528.5, 2.0)">B</text><text xml:space="preserve" font-family="Montserrat-Bold" font-weight="bold" font-size="33.0" fill="#000000" transform="matrix(1.00, 0.00, -0.00, -1.00, 560.8, 2.0)">E</text><text xml:space="preserve" font-family="Montserrat-Bold" font-weight="bold" font-size="33.0" fill="#000000" transform="matrix(1.00, 0.00, -0.00, -1.00, 590.0, 2.0)">N</text><text xml:space="preserve" font-family="Montserrat-Bold" font-weight="bold" font-size="33.0" fill="#000000" transform="matrix(1.00, 0.00, -0.00, -1.00, 623.8, 2.0)">J</text><text xml:space="preserve" font-family="Montserrat-Bold" font-weight="bold" font-size="33.0" fill="#000000" transform="matrix(1.00, 0.00, -0.00, -1.00, 648.2, 2.0)">A</text><text xml:space="preserve" font-family="Montserrat-Bold" font-weight="bold" font-size="33.0" fill="#000000" transform="matrix(1.00, 0.00, -0.00, -1.00, 680.6, 2.0)">M</text><text xml:space="preserve" font-family="Montserrat-Bold" font-weight="bold" font-size="33.0" fill="#000000" transform="matrix(1.00, 0.00, -0.00, -1.00, 719.1, 2.0)">I</text><text xml:space="preserve" font-family="Montserrat-Bold" font-weight="bold" font-size="33.0" fill="#000000" transform="matrix(1.00, 0.00, -0.00, -1.00, 737.0, 2.0)">N</text><text xml:space="preserve" font-family="Montserrat-Bold" font-weight="bold" font-size="33.0" fill="#000000" transform="matrix(1.00, 0.00, -0.00, -1.00, 770.8, 2.0)"> </text><text xml:space="preserve" font-family="Montserrat-Bold" font-weight="bold" font-size="33.0" fill="#000000" transform="matrix(1.00, 0.00, -0.00, -1.00, 787.2, 2.0)">S</text><text xml:space="preserve" font-family="Montserrat-Bold" font-weight="bold" font-size="33.0" fill="#000000" transform="matrix(1.00, 0.00, -0.00, -1.00, 815.3, 2.0)">M</text><text xml:space="preserve" font-family="Montserrat-Bold" font-weight="bold" font-size="33.0" fill="#000000" transform="matrix(1.00, 0.00, -0.00, -1.00, 853.9, 2.0)">I</text><text xml:space="preserve" font-family="Montserrat-Bold" font-weight="bold" font-size="33.0" fill="#000000" transform="matrix(1.00, 0.00, -0.00, -1.00, 871.8, 2.0)">T</text><text xml:space="preserve" font-family="Montserrat-Bold" font-weight="bold" font-size="33.0" fill="#000000" transform="matrix(1.00, 0.00, -0.00, -1.00, 899.3, 2.0)">H</text></g></svg>