<?xml version="1.0" encoding="UTF-8"?><svg xmlns="http://www.w3.org/2000/svg" xmlns:xlink="http://www.w3.org/1999/xlink" clip-rule="evenodd" stroke-miterlimit="4.00" viewBox="0 0 433 28"><desc>SVG generated by Keynote</desc><defs></defs><g transform="matrix(1.00, 0.00, -0.00, -1.00, 0.0, 28.0)"><text xml:space="preserve" font-family="Montserrat-Bold" font-weight="bold" font-size="33.0" fill="#000000" transform="matrix(1.00, 0.00, -0.00, -1.00, 2.0, 2.0)">T</text><text xml:space="preserve" font-family="Montserrat-Bold" font-weight="bold" font-size="33.0" fill="#000000" transform="matrix(1.00, 0.00, -0.00, -1.00, 29.0, 2.0)">W</text><text xml:space="preserve" font-family="Montserrat-Bold" font-weight="bold" font-size="33.0" fill="#000000" transform="matrix(1.00, 0.00, -0.00, -1.00, 73.7, 2.0)">O</text><text xml:space="preserve" font-family="Montserrat-Bold" font-weight="bold" font-size="33.0" fill="#000000" transform="matrix(1.00, 0.00, -0.00, -1.00, 108.7, 2.0)"> </text><text xml:space="preserve" font-family="Montserrat-Bold" font-weight="bold" font-size="33.0" fill="#000000" transform="matrix(1.00, 0.00, -0.00, -1.00, 125.1, 2.0)">M</text><text xml:space="preserve" font-family="Montserrat-Bold" font-weight="bold" font-size="33.0" fill="#000000" transform="matrix(1.00, 0.00, -0.00, -1.00, 163.7, 2.0)">A</text><text xml:space="preserve" font-family="Montserrat-Bold" font-weight="bold" font-size="33.0" fill="#000000" transform="matrix(1.00, 0.00, -0.00, -1.00, 196.5, 2.0)">J</text><text xml:space="preserve" font-family="Montserrat-Bold" font-weight="bold" font-size="33.0" fill="#000000" transform="matrix(1.00, 0.00, -0.00, -1.00, 221.4, 2.0)">O</text><text xml:space="preserve" font-family="Montserrat-Bold" font-weight="bold" font-size="33.0" fill="#000000" transform="matrix(1.00, 0.00, -0.00, -1.00, 256.3, 2.0)">R</text><text xml:space="preserve" font-family="Montserrat-Bold" font-weight="bold" font-size="33.0" fill="#000000" transform="matrix(1.00, 0.00, -0.00, -1.00, 287.7, 2.0)"> </text><text xml:space="preserve" font-family="Montserrat-Bold" font-weight="bold" font-size="33.0" fill="#000000" transform="matrix(1.00, 0.00, -0.00, -1.00, 304.1, 2.0)">H</text><text xml:space="preserve" font-family="Montserrat-Bold" font-weight="bold" font-size="33.0" fill="#000000" transform="matrix(1.00, 0.00, -0.00, -1.00, 337.8, 2.0)">U</text><text xml:space="preserve" font-family="Montserrat-Bold" font-weight="bold" font-size="33.0" fill="#000000" transform="matrix(1.00, 0.00, -0.00, -1.00, 370.9, 2.0)">B</text><text xml:space="preserve" font-family="Montserrat-Bold" font-weight="bold" font-size="33.0" fill="#000000" transform="matrix(1.00, 0.00, -0.00, -1.00, 403.2, 2.0)">S</text><text xml:space="preserve" font-family="Montserrat-Bold" font-weight="bold" font-size="33.0" fill="#000000" transform="matrix(1.00, 0.00, -0.00, -1.00, 431.3, 2.0)"> </text></g></svg>