<?xml version="1.0" encoding="UTF-8"?><svg xmlns="http://www.w3.org/2000/svg" xmlns:xlink="http://www.w3.org/1999/xlink" clip-rule="evenodd" stroke-miterlimit="4.00" viewBox="0 0 1280 194"><desc>SVG generated by Keynote</desc><defs></defs><g transform="matrix(1.00, 0.00, -0.00, -1.00, 0.0, 194.0)"><text xml:space="preserve" font-family="Montserrat-Bold" font-weight="bold" font-size="239.0" fill="#F7F7F7" transform="matrix(1.00, 0.00, -0.00, -1.00, 4.0, 3.0)">A</text><text xml:space="preserve" font-family="Montserrat-Bold" font-weight="bold" font-size="239.0" fill="#F7F7F7" transform="matrix(1.00, 0.00, -0.00, -1.00, 187.1, 3.0)">i</text><text xml:space="preserve" font-family="Montserrat-Bold" font-weight="bold" font-size="239.0" fill="#F7F7F7" transform="matrix(1.00, 0.00, -0.00, -1.00, 259.0, 3.0)">r</text><text xml:space="preserve" font-family="Montserrat-Bold" font-weight="bold" font-size="239.0" fill="#F7F7F7" transform="matrix(1.00, 0.00, -0.00, -1.00, 362.0, 3.0)"> </text><text xml:space="preserve" font-family="Montserrat-Bold" font-weight="bold" font-size="239.0" fill="#F7F7F7" transform="matrix(1.00, 0.00, -0.00, -1.00, 429.7, 3.0)">F</text><text xml:space="preserve" font-family="Montserrat-Bold" font-weight="bold" font-size="239.0" fill="#F7F7F7" transform="matrix(1.00, 0.00, -0.00, -1.00, 580.0, 3.0)">r</text><text xml:space="preserve" font-family="Montserrat-Bold" font-weight="bold" font-size="239.0" fill="#F7F7F7" transform="matrix(1.00, 0.00, -0.00, -1.00, 681.3, 3.0)">a</text><text xml:space="preserve" font-family="Montserrat-Bold" font-weight="bold" font-size="239.0" fill="#F7F7F7" transform="matrix(1.00, 0.00, -0.00, -1.00, 828.8, 3.0)">n</text><text xml:space="preserve" font-family="Montserrat-Bold" font-weight="bold" font-size="239.0" fill="#F7F7F7" transform="matrix(1.00, 0.00, -0.00, -1.00, 995.4, 3.0)">c</text><text xml:space="preserve" font-family="Montserrat-Bold" font-weight="bold" font-size="239.0" fill="#F7F7F7" transform="matrix(1.00, 0.00, -0.00, -1.00, 1134.9, 3.0)">e</text></g></svg>