<?xml version="1.0" encoding="UTF-8"?><svg xmlns="http://www.w3.org/2000/svg" xmlns:xlink="http://www.w3.org/1999/xlink" clip-rule="evenodd" stroke-miterlimit="4.00" viewBox="0 0 831 28"><desc>SVG generated by Keynote</desc><defs></defs><g transform="matrix(1.00, 0.00, -0.00, -1.00, 0.0, 28.0)"><text xml:space="preserve" font-family="Montserrat-SemiBoldItalic" font-style="italic" font-weight="bold" font-size="33.0" fill="#000000" transform="matrix(1.00, 0.00, -0.00, -1.00, 4.0, 2.0)">A</text><text xml:space="preserve" font-family="Montserrat-SemiBoldItalic" font-style="italic" font-weight="bold" font-size="33.0" fill="#000000" transform="matrix(1.00, 0.00, -0.00, -1.00, 35.3, 2.0)">U</text><text xml:space="preserve" font-family="Montserrat-SemiBoldItalic" font-style="italic" font-weight="bold" font-size="33.0" fill="#000000" transform="matrix(1.00, 0.00, -0.00, -1.00, 68.0, 2.0)">T</text><text xml:space="preserve" font-family="Montserrat-SemiBoldItalic" font-style="italic" font-weight="bold" font-size="33.0" fill="#000000" transform="matrix(1.00, 0.00, -0.00, -1.00, 94.6, 2.0)">O</text><text xml:space="preserve" font-family="Montserrat-SemiBoldItalic" font-style="italic" font-weight="bold" font-size="33.0" fill="#000000" transform="matrix(1.00, 0.00, -0.00, -1.00, 129.4, 2.0)">M</text><text xml:space="preserve" font-family="Montserrat-SemiBoldItalic" font-style="italic" font-weight="bold" font-size="33.0" fill="#000000" transform="matrix(1.00, 0.00, -0.00, -1.00, 168.0, 2.0)">A</text><text xml:space="preserve" font-family="Montserrat-SemiBoldItalic" font-style="italic" font-weight="bold" font-size="33.0" fill="#000000" transform="matrix(1.00, 0.00, -0.00, -1.00, 198.7, 2.0)">T</text><text xml:space="preserve" font-family="Montserrat-SemiBoldItalic" font-style="italic" font-weight="bold" font-size="33.0" fill="#000000" transform="matrix(1.00, 0.00, -0.00, -1.00, 225.6, 2.0)">I</text><text xml:space="preserve" font-family="Montserrat-SemiBoldItalic" font-style="italic" font-weight="bold" font-size="33.0" fill="#000000" transform="matrix(1.00, 0.00, -0.00, -1.00, 243.2, 2.0)">O</text><text xml:space="preserve" font-family="Montserrat-SemiBoldItalic" font-style="italic" font-weight="bold" font-size="33.0" fill="#000000" transform="matrix(1.00, 0.00, -0.00, -1.00, 278.1, 2.0)">N</text><text xml:space="preserve" font-family="Montserrat-SemiBoldItalic" font-style="italic" font-weight="bold" font-size="33.0" fill="#000000" transform="matrix(1.00, 0.00, -0.00, -1.00, 311.9, 2.0)"> </text><text xml:space="preserve" font-family="Montserrat-SemiBoldItalic" font-style="italic" font-weight="bold" font-size="33.0" fill="#000000" transform="matrix(1.00, 0.00, -0.00, -1.00, 328.0, 2.0)">O</text><text xml:space="preserve" font-family="Montserrat-SemiBoldItalic" font-style="italic" font-weight="bold" font-size="33.0" fill="#000000" transform="matrix(1.00, 0.00, -0.00, -1.00, 362.9, 2.0)">F</text><text xml:space="preserve" font-family="Montserrat-SemiBoldItalic" font-style="italic" font-weight="bold" font-size="33.0" fill="#000000" transform="matrix(1.00, 0.00, -0.00, -1.00, 391.0, 2.0)"> </text><text xml:space="preserve" font-family="Montserrat-SemiBoldItalic" font-style="italic" font-weight="bold" font-size="33.0" fill="#000000" transform="matrix(1.00, 0.00, -0.00, -1.00, 407.2, 2.0)">R</text><text xml:space="preserve" font-family="Montserrat-SemiBoldItalic" font-style="italic" font-weight="bold" font-size="33.0" fill="#000000" transform="matrix(1.00, 0.00, -0.00, -1.00, 438.4, 2.0)">E</text><text xml:space="preserve" font-family="Montserrat-SemiBoldItalic" font-style="italic" font-weight="bold" font-size="33.0" fill="#000000" transform="matrix(1.00, 0.00, -0.00, -1.00, 467.5, 2.0)">P</text><text xml:space="preserve" font-family="Montserrat-SemiBoldItalic" font-style="italic" font-weight="bold" font-size="33.0" fill="#000000" transform="matrix(1.00, 0.00, -0.00, -1.00, 498.2, 2.0)">E</text><text xml:space="preserve" font-family="Montserrat-SemiBoldItalic" font-style="italic" font-weight="bold" font-size="33.0" fill="#000000" transform="matrix(1.00, 0.00, -0.00, -1.00, 527.4, 2.0)">T</text><text xml:space="preserve" font-family="Montserrat-SemiBoldItalic" font-style="italic" font-weight="bold" font-size="33.0" fill="#000000" transform="matrix(1.00, 0.00, -0.00, -1.00, 554.4, 2.0)">I</text><text xml:space="preserve" font-family="Montserrat-SemiBoldItalic" font-style="italic" font-weight="bold" font-size="33.0" fill="#000000" transform="matrix(1.00, 0.00, -0.00, -1.00, 572.0, 2.0)">T</text><text xml:space="preserve" font-family="Montserrat-SemiBoldItalic" font-style="italic" font-weight="bold" font-size="33.0" fill="#000000" transform="matrix(1.00, 0.00, -0.00, -1.00, 598.9, 2.0)">I</text><text xml:space="preserve" font-family="Montserrat-SemiBoldItalic" font-style="italic" font-weight="bold" font-size="33.0" fill="#000000" transform="matrix(1.00, 0.00, -0.00, -1.00, 616.3, 2.0)">V</text><text xml:space="preserve" font-family="Montserrat-SemiBoldItalic" font-style="italic" font-weight="bold" font-size="33.0" fill="#000000" transform="matrix(1.00, 0.00, -0.00, -1.00, 647.0, 2.0)">E</text><text xml:space="preserve" font-family="Montserrat-SemiBoldItalic" font-style="italic" font-weight="bold" font-size="33.0" fill="#000000" transform="matrix(1.00, 0.00, -0.00, -1.00, 676.2, 2.0)"> </text><text xml:space="preserve" font-family="Montserrat-SemiBoldItalic" font-style="italic" font-weight="bold" font-size="33.0" fill="#000000" transform="matrix(1.00, 0.00, -0.00, -1.00, 692.3, 2.0)">T</text><text xml:space="preserve" font-family="Montserrat-SemiBoldItalic" font-style="italic" font-weight="bold" font-size="33.0" fill="#000000" transform="matrix(1.00, 0.00, -0.00, -1.00, 718.1, 2.0)">A</text><text xml:space="preserve" font-family="Montserrat-SemiBoldItalic" font-style="italic" font-weight="bold" font-size="33.0" fill="#000000" transform="matrix(1.00, 0.00, -0.00, -1.00, 749.9, 2.0)">S</text><text xml:space="preserve" font-family="Montserrat-SemiBoldItalic" font-style="italic" font-weight="bold" font-size="33.0" fill="#000000" transform="matrix(1.00, 0.00, -0.00, -1.00, 777.7, 2.0)">K</text><text xml:space="preserve" font-family="Montserrat-SemiBoldItalic" font-style="italic" font-weight="bold" font-size="33.0" fill="#000000" transform="matrix(1.00, 0.00, -0.00, -1.00, 808.4, 2.0)">S</text></g></svg>