<?xml version="1.0" encoding="UTF-8"?><svg xmlns="http://www.w3.org/2000/svg" xmlns:xlink="http://www.w3.org/1999/xlink" clip-rule="evenodd" stroke-miterlimit="4.00" viewBox="0 0 818 54"><desc>SVG generated by Keynote</desc><defs></defs><g transform="matrix(1.00, 0.00, -0.00, -1.00, 0.0, 54.0)"><text xml:space="preserve" font-family="Montserrat-Bold" font-weight="bold" font-size="50.0" fill="#EF1312" transform="matrix(1.00, 0.00, -0.00, -1.00, -1.0, 13.0)">p</text><text xml:space="preserve" font-family="Montserrat-Bold" font-weight="bold" font-size="50.0" fill="#EF1312" transform="matrix(1.00, 0.00, -0.00, -1.00, 33.0, 13.0)">a</text><text xml:space="preserve" font-family="Montserrat-Bold" font-weight="bold" font-size="50.0" fill="#EF1312" transform="matrix(1.00, 0.00, -0.00, -1.00, 63.9, 13.0)">s</text><text xml:space="preserve" font-family="Montserrat-Bold" font-weight="bold" font-size="50.0" fill="#EF1312" transform="matrix(1.00, 0.00, -0.00, -1.00, 90.5, 13.0)">s</text><text xml:space="preserve" font-family="Montserrat-Bold" font-weight="bold" font-size="50.0" fill="#EF1312" transform="matrix(1.00, 0.00, -0.00, -1.00, 117.0, 13.0)">e</text><text xml:space="preserve" font-family="Montserrat-Bold" font-weight="bold" font-size="50.0" fill="#EF1312" transform="matrix(1.00, 0.00, -0.00, -1.00, 148.6, 13.0)">n</text><text xml:space="preserve" font-family="Montserrat-Bold" font-weight="bold" font-size="50.0" fill="#EF1312" transform="matrix(1.00, 0.00, -0.00, -1.00, 183.4, 13.0)">g</text><text xml:space="preserve" font-family="Montserrat-Bold" font-weight="bold" font-size="50.0" fill="#EF1312" transform="matrix(1.00, 0.00, -0.00, -1.00, 218.4, 13.0)">e</text><text xml:space="preserve" font-family="Montserrat-Bold" font-weight="bold" font-size="50.0" fill="#EF1312" transform="matrix(1.00, 0.00, -0.00, -1.00, 250.0, 13.0)">r</text><text xml:space="preserve" font-family="Montserrat-Bold" font-weight="bold" font-size="50.0" fill="#EF1312" transform="matrix(1.00, 0.00, -0.00, -1.00, 271.4, 13.0)">s</text><text xml:space="preserve" font-family="Montserrat-Bold" font-weight="bold" font-size="50.0" fill="#EF1312" transform="matrix(1.00, 0.00, -0.00, -1.00, 298.0, 13.0)"> </text><text xml:space="preserve" font-family="Montserrat-Bold" font-weight="bold" font-size="50.0" fill="#EF1312" transform="matrix(1.00, 0.00, -0.00, -1.00, 312.1, 13.0)">t</text><text xml:space="preserve" font-family="Montserrat-Bold" font-weight="bold" font-size="50.0" fill="#EF1312" transform="matrix(1.00, 0.00, -0.00, -1.00, 333.9, 13.0)">r</text><text xml:space="preserve" font-family="Montserrat-Bold" font-weight="bold" font-size="50.0" fill="#EF1312" transform="matrix(1.00, 0.00, -0.00, -1.00, 355.1, 13.0)">a</text><text xml:space="preserve" font-family="Montserrat-Bold" font-weight="bold" font-size="50.0" fill="#EF1312" transform="matrix(1.00, 0.00, -0.00, -1.00, 385.9, 13.0)">n</text><text xml:space="preserve" font-family="Montserrat-Bold" font-weight="bold" font-size="50.0" fill="#EF1312" transform="matrix(1.00, 0.00, -0.00, -1.00, 420.5, 13.0)">s</text><text xml:space="preserve" font-family="Montserrat-Bold" font-weight="bold" font-size="50.0" fill="#EF1312" transform="matrix(1.00, 0.00, -0.00, -1.00, 447.0, 13.0)">p</text><text xml:space="preserve" font-family="Montserrat-Bold" font-weight="bold" font-size="50.0" fill="#EF1312" transform="matrix(1.00, 0.00, -0.00, -1.00, 481.5, 13.0)">o</text><text xml:space="preserve" font-family="Montserrat-Bold" font-weight="bold" font-size="50.0" fill="#EF1312" transform="matrix(1.00, 0.00, -0.00, -1.00, 514.2, 13.0)">r</text><text xml:space="preserve" font-family="Montserrat-Bold" font-weight="bold" font-size="50.0" fill="#EF1312" transform="matrix(1.00, 0.00, -0.00, -1.00, 536.5, 13.0)">t</text><text xml:space="preserve" font-family="Montserrat-Bold" font-weight="bold" font-size="50.0" fill="#EF1312" transform="matrix(1.00, 0.00, -0.00, -1.00, 557.4, 13.0)">e</text><text xml:space="preserve" font-family="Montserrat-Bold" font-weight="bold" font-size="50.0" fill="#EF1312" transform="matrix(1.00, 0.00, -0.00, -1.00, 589.0, 13.0)">d</text><text xml:space="preserve" font-family="Montserrat-Bold" font-weight="bold" font-size="50.0" fill="#EF1312" transform="matrix(1.00, 0.00, -0.00, -1.00, 623.6, 13.0)"> </text><text xml:space="preserve" font-family="Montserrat-Bold" font-weight="bold" font-size="50.0" fill="#EF1312" transform="matrix(1.00, 0.00, -0.00, -1.00, 637.7, 13.0)">i</text><text xml:space="preserve" font-family="Montserrat-Bold" font-weight="bold" font-size="50.0" fill="#EF1312" transform="matrix(1.00, 0.00, -0.00, -1.00, 652.8, 13.0)">n</text><text xml:space="preserve" font-family="Montserrat-Bold" font-weight="bold" font-size="50.0" fill="#EF1312" transform="matrix(1.00, 0.00, -0.00, -1.00, 687.3, 13.0)"> </text><text xml:space="preserve" font-family="Montserrat-Bold" font-weight="bold" font-size="50.0" fill="#EF1312" transform="matrix(1.00, 0.00, -0.00, -1.00, 701.5, 13.0)">2</text><text xml:space="preserve" font-family="Montserrat-Bold" font-weight="bold" font-size="50.0" fill="#EF1312" transform="matrix(1.00, 0.00, -0.00, -1.00, 730.9, 13.0)">0</text><text xml:space="preserve" font-family="Montserrat-Bold" font-weight="bold" font-size="50.0" fill="#EF1312" transform="matrix(1.00, 0.00, -0.00, -1.00, 764.5, 13.0)">1</text><text xml:space="preserve" font-family="Montserrat-Bold" font-weight="bold" font-size="50.0" fill="#EF1312" transform="matrix(1.00, 0.00, -0.00, -1.00, 784.1, 13.0)">8</text><text xml:space="preserve" font-family="Montserrat-Bold" font-weight="bold" font-size="50.0" fill="#EF1312" transform="matrix(1.00, 0.00, -0.00, -1.00, 817.1, 13.0)"> </text></g></svg>