<?xml version="1.0" encoding="UTF-8"?><svg xmlns="http://www.w3.org/2000/svg" xmlns:xlink="http://www.w3.org/1999/xlink" clip-rule="evenodd" stroke-miterlimit="4.00" viewBox="0 0 328 44"><desc>SVG generated by Keynote</desc><defs></defs><g transform="matrix(1.00, 0.00, -0.00, -1.00, 0.0, 44.0)"><text xml:space="preserve" font-family="Montserrat-Bold" font-weight="bold" font-size="50.0" fill="#EF1312" transform="matrix(1.00, 0.00, -0.00, -1.00, 0.0, 3.0)">d</text><text xml:space="preserve" font-family="Montserrat-Bold" font-weight="bold" font-size="50.0" fill="#EF1312" transform="matrix(1.00, 0.00, -0.00, -1.00, 34.6, 3.0)">e</text><text xml:space="preserve" font-family="Montserrat-Bold" font-weight="bold" font-size="50.0" fill="#EF1312" transform="matrix(1.00, 0.00, -0.00, -1.00, 66.2, 3.0)">s</text><text xml:space="preserve" font-family="Montserrat-Bold" font-weight="bold" font-size="50.0" fill="#EF1312" transform="matrix(1.00, 0.00, -0.00, -1.00, 92.7, 3.0)">t</text><text xml:space="preserve" font-family="Montserrat-Bold" font-weight="bold" font-size="50.0" fill="#EF1312" transform="matrix(1.00, 0.00, -0.00, -1.00, 114.5, 3.0)">i</text><text xml:space="preserve" font-family="Montserrat-Bold" font-weight="bold" font-size="50.0" fill="#EF1312" transform="matrix(1.00, 0.00, -0.00, -1.00, 129.5, 3.0)">n</text><text xml:space="preserve" font-family="Montserrat-Bold" font-weight="bold" font-size="50.0" fill="#EF1312" transform="matrix(1.00, 0.00, -0.00, -1.00, 164.1, 3.0)">a</text><text xml:space="preserve" font-family="Montserrat-Bold" font-weight="bold" font-size="50.0" fill="#EF1312" transform="matrix(1.00, 0.00, -0.00, -1.00, 194.9, 3.0)">t</text><text xml:space="preserve" font-family="Montserrat-Bold" font-weight="bold" font-size="50.0" fill="#EF1312" transform="matrix(1.00, 0.00, -0.00, -1.00, 216.7, 3.0)">i</text><text xml:space="preserve" font-family="Montserrat-Bold" font-weight="bold" font-size="50.0" fill="#EF1312" transform="matrix(1.00, 0.00, -0.00, -1.00, 231.7, 3.0)">o</text><text xml:space="preserve" font-family="Montserrat-Bold" font-weight="bold" font-size="50.0" fill="#EF1312" transform="matrix(1.00, 0.00, -0.00, -1.00, 264.5, 3.0)">n</text><text xml:space="preserve" font-family="Montserrat-Bold" font-weight="bold" font-size="50.0" fill="#EF1312" transform="matrix(1.00, 0.00, -0.00, -1.00, 299.0, 3.0)">s</text><text xml:space="preserve" font-family="Montserrat-Bold" font-weight="bold" font-size="50.0" fill="#EF1312" transform="matrix(1.00, 0.00, -0.00, -1.00, 325.6, 3.0)"> </text></g></svg>