<?xml version="1.0" encoding="UTF-8"?><svg xmlns="http://www.w3.org/2000/svg" xmlns:xlink="http://www.w3.org/1999/xlink" clip-rule="evenodd" stroke-miterlimit="4.00" viewBox="0 0 843 108"><desc>SVG generated by Keynote</desc><defs></defs><g transform="matrix(1.00, 0.00, -0.00, -1.00, 0.0, 108.0)"><text xml:space="preserve" font-family="Montserrat-SemiBoldItalic" font-style="italic" font-weight="bold" font-size="33.0" fill="#000000" transform="matrix(1.00, 0.00, -0.00, -1.00, 4.0, 82.0)">A</text><text xml:space="preserve" font-family="Montserrat-SemiBoldItalic" font-style="italic" font-weight="bold" font-size="33.0" fill="#000000" transform="matrix(1.00, 0.00, -0.00, -1.00, 35.8, 82.0)">S</text><text xml:space="preserve" font-family="Montserrat-SemiBoldItalic" font-style="italic" font-weight="bold" font-size="33.0" fill="#000000" transform="matrix(1.00, 0.00, -0.00, -1.00, 63.6, 82.0)">S</text><text xml:space="preserve" font-family="Montserrat-SemiBoldItalic" font-style="italic" font-weight="bold" font-size="33.0" fill="#000000" transform="matrix(1.00, 0.00, -0.00, -1.00, 91.4, 82.0)">U</text><text xml:space="preserve" font-family="Montserrat-SemiBoldItalic" font-style="italic" font-weight="bold" font-size="33.0" fill="#000000" transform="matrix(1.00, 0.00, -0.00, -1.00, 124.6, 82.0)">R</text><text xml:space="preserve" font-family="Montserrat-SemiBoldItalic" font-style="italic" font-weight="bold" font-size="33.0" fill="#000000" transform="matrix(1.00, 0.00, -0.00, -1.00, 155.8, 82.0)">E</text><text xml:space="preserve" font-family="Montserrat-SemiBoldItalic" font-style="italic" font-weight="bold" font-size="33.0" fill="#000000" transform="matrix(1.00, 0.00, -0.00, -1.00, 184.9, 82.0)"> </text><text xml:space="preserve" font-family="Montserrat-SemiBoldItalic" font-style="italic" font-weight="bold" font-size="33.0" fill="#000000" transform="matrix(1.00, 0.00, -0.00, -1.00, 201.1, 82.0)">T</text><text xml:space="preserve" font-family="Montserrat-SemiBoldItalic" font-style="italic" font-weight="bold" font-size="33.0" fill="#000000" transform="matrix(1.00, 0.00, -0.00, -1.00, 228.1, 82.0)">H</text><text xml:space="preserve" font-family="Montserrat-SemiBoldItalic" font-style="italic" font-weight="bold" font-size="33.0" fill="#000000" transform="matrix(1.00, 0.00, -0.00, -1.00, 261.9, 82.0)">E</text><text xml:space="preserve" font-family="Montserrat-SemiBoldItalic" font-style="italic" font-weight="bold" font-size="33.0" fill="#000000" transform="matrix(1.00, 0.00, -0.00, -1.00, 291.0, 82.0)"> </text><text xml:space="preserve" font-family="Montserrat-SemiBoldItalic" font-style="italic" font-weight="bold" font-size="33.0" fill="#000000" transform="matrix(1.00, 0.00, -0.00, -1.00, 307.2, 82.0)">2</text><text xml:space="preserve" font-family="Montserrat-SemiBoldItalic" font-style="italic" font-weight="bold" font-size="33.0" fill="#000000" transform="matrix(1.00, 0.00, -0.00, -1.00, 333.5, 82.0)">N</text><text xml:space="preserve" font-family="Montserrat-SemiBoldItalic" font-style="italic" font-weight="bold" font-size="33.0" fill="#000000" transform="matrix(1.00, 0.00, -0.00, -1.00, 367.3, 82.0)">D</text><text xml:space="preserve" font-family="Montserrat-SemiBoldItalic" font-style="italic" font-weight="bold" font-size="33.0" fill="#000000" transform="matrix(1.00, 0.00, -0.00, -1.00, 401.6, 82.0)"> </text><text xml:space="preserve" font-family="Montserrat-SemiBoldItalic" font-style="italic" font-weight="bold" font-size="33.0" fill="#000000" transform="matrix(1.00, 0.00, -0.00, -1.00, 417.8, 82.0)">L</text><text xml:space="preserve" font-family="Montserrat-SemiBoldItalic" font-style="italic" font-weight="bold" font-size="33.0" fill="#000000" transform="matrix(1.00, 0.00, -0.00, -1.00, 444.6, 82.0)">E</text><text xml:space="preserve" font-family="Montserrat-SemiBoldItalic" font-style="italic" font-weight="bold" font-size="33.0" fill="#000000" transform="matrix(1.00, 0.00, -0.00, -1.00, 473.5, 82.0)">V</text><text xml:space="preserve" font-family="Montserrat-SemiBoldItalic" font-style="italic" font-weight="bold" font-size="33.0" fill="#000000" transform="matrix(1.00, 0.00, -0.00, -1.00, 504.1, 82.0)">E</text><text xml:space="preserve" font-family="Montserrat-SemiBoldItalic" font-style="italic" font-weight="bold" font-size="33.0" fill="#000000" transform="matrix(1.00, 0.00, -0.00, -1.00, 533.3, 82.0)">L</text><text xml:space="preserve" font-family="Montserrat-SemiBoldItalic" font-style="italic" font-weight="bold" font-size="33.0" fill="#000000" transform="matrix(1.00, 0.00, -0.00, -1.00, 560.1, 82.0)"> </text><text xml:space="preserve" font-family="Montserrat-SemiBoldItalic" font-style="italic" font-weight="bold" font-size="33.0" fill="#000000" transform="matrix(1.00, 0.00, -0.00, -1.00, 576.3, 82.0)">O</text><text xml:space="preserve" font-family="Montserrat-SemiBoldItalic" font-style="italic" font-weight="bold" font-size="33.0" fill="#000000" transform="matrix(1.00, 0.00, -0.00, -1.00, 611.2, 82.0)">F</text><text xml:space="preserve" font-family="Montserrat-SemiBoldItalic" font-style="italic" font-weight="bold" font-size="33.0" fill="#000000" transform="matrix(1.00, 0.00, -0.00, -1.00, 639.3, 82.0)"> </text><text xml:space="preserve" font-family="Montserrat-SemiBoldItalic" font-style="italic" font-weight="bold" font-size="33.0" fill="#000000" transform="matrix(1.00, 0.00, -0.00, -1.00, 4.0, 42.0)">O</text><text xml:space="preserve" font-family="Montserrat-SemiBoldItalic" font-style="italic" font-weight="bold" font-size="33.0" fill="#000000" transform="matrix(1.00, 0.00, -0.00, -1.00, 38.9, 42.0)">P</text><text xml:space="preserve" font-family="Montserrat-SemiBoldItalic" font-style="italic" font-weight="bold" font-size="33.0" fill="#000000" transform="matrix(1.00, 0.00, -0.00, -1.00, 69.6, 42.0)">E</text><text xml:space="preserve" font-family="Montserrat-SemiBoldItalic" font-style="italic" font-weight="bold" font-size="33.0" fill="#000000" transform="matrix(1.00, 0.00, -0.00, -1.00, 98.7, 42.0)">R</text><text xml:space="preserve" font-family="Montserrat-SemiBoldItalic" font-style="italic" font-weight="bold" font-size="33.0" fill="#000000" transform="matrix(1.00, 0.00, -0.00, -1.00, 129.9, 42.0)">A</text><text xml:space="preserve" font-family="Montserrat-SemiBoldItalic" font-style="italic" font-weight="bold" font-size="33.0" fill="#000000" transform="matrix(1.00, 0.00, -0.00, -1.00, 160.6, 42.0)">T</text><text xml:space="preserve" font-family="Montserrat-SemiBoldItalic" font-style="italic" font-weight="bold" font-size="33.0" fill="#000000" transform="matrix(1.00, 0.00, -0.00, -1.00, 187.2, 42.0)">O</text><text xml:space="preserve" font-family="Montserrat-SemiBoldItalic" font-style="italic" font-weight="bold" font-size="33.0" fill="#000000" transform="matrix(1.00, 0.00, -0.00, -1.00, 222.0, 42.0)">R</text><text xml:space="preserve" font-family="Montserrat-SemiBoldItalic" font-style="italic" font-weight="bold" font-size="33.0" fill="#000000" transform="matrix(1.00, 0.00, -0.00, -1.00, 253.2, 42.0)">S</text><text xml:space="preserve" font-family="Montserrat-SemiBoldItalic" font-style="italic" font-weight="bold" font-size="33.0" fill="#000000" transform="matrix(1.00, 0.00, -0.00, -1.00, 281.1, 42.0)"> </text><text xml:space="preserve" font-family="Montserrat-SemiBoldItalic" font-style="italic" font-weight="bold" font-size="33.0" fill="#000000" transform="matrix(1.00, 0.00, -0.00, -1.00, 297.2, 42.0)">I</text><text xml:space="preserve" font-family="Montserrat-SemiBoldItalic" font-style="italic" font-weight="bold" font-size="33.0" fill="#000000" transform="matrix(1.00, 0.00, -0.00, -1.00, 314.8, 42.0)">N</text><text xml:space="preserve" font-family="Montserrat-SemiBoldItalic" font-style="italic" font-weight="bold" font-size="33.0" fill="#000000" transform="matrix(1.00, 0.00, -0.00, -1.00, 348.6, 42.0)"> </text><text xml:space="preserve" font-family="Montserrat-SemiBoldItalic" font-style="italic" font-weight="bold" font-size="33.0" fill="#000000" transform="matrix(1.00, 0.00, -0.00, -1.00, 364.8, 42.0)">C</text><text xml:space="preserve" font-family="Montserrat-SemiBoldItalic" font-style="italic" font-weight="bold" font-size="33.0" fill="#000000" transform="matrix(1.00, 0.00, -0.00, -1.00, 395.4, 42.0)">A</text><text xml:space="preserve" font-family="Montserrat-SemiBoldItalic" font-style="italic" font-weight="bold" font-size="33.0" fill="#000000" transform="matrix(1.00, 0.00, -0.00, -1.00, 427.2, 42.0)">S</text><text xml:space="preserve" font-family="Montserrat-SemiBoldItalic" font-style="italic" font-weight="bold" font-size="33.0" fill="#000000" transform="matrix(1.00, 0.00, -0.00, -1.00, 455.0, 42.0)">E</text><text xml:space="preserve" font-family="Montserrat-SemiBoldItalic" font-style="italic" font-weight="bold" font-size="33.0" fill="#000000" transform="matrix(1.00, 0.00, -0.00, -1.00, 484.2, 42.0)"> </text><text xml:space="preserve" font-family="Montserrat-SemiBoldItalic" font-style="italic" font-weight="bold" font-size="33.0" fill="#000000" transform="matrix(1.00, 0.00, -0.00, -1.00, 500.4, 42.0)">O</text><text xml:space="preserve" font-family="Montserrat-SemiBoldItalic" font-style="italic" font-weight="bold" font-size="33.0" fill="#000000" transform="matrix(1.00, 0.00, -0.00, -1.00, 535.2, 42.0)">F</text><text xml:space="preserve" font-family="Montserrat-SemiBoldItalic" font-style="italic" font-weight="bold" font-size="33.0" fill="#000000" transform="matrix(1.00, 0.00, -0.00, -1.00, 563.3, 42.0)"> </text><text xml:space="preserve" font-family="Montserrat-SemiBoldItalic" font-style="italic" font-weight="bold" font-size="33.0" fill="#000000" transform="matrix(1.00, 0.00, -0.00, -1.00, 579.5, 42.0)">T</text><text xml:space="preserve" font-family="Montserrat-SemiBoldItalic" font-style="italic" font-weight="bold" font-size="33.0" fill="#000000" transform="matrix(1.00, 0.00, -0.00, -1.00, 606.4, 42.0)">E</text><text xml:space="preserve" font-family="Montserrat-SemiBoldItalic" font-style="italic" font-weight="bold" font-size="33.0" fill="#000000" transform="matrix(1.00, 0.00, -0.00, -1.00, 635.5, 42.0)">C</text><text xml:space="preserve" font-family="Montserrat-SemiBoldItalic" font-style="italic" font-weight="bold" font-size="33.0" fill="#000000" transform="matrix(1.00, 0.00, -0.00, -1.00, 666.6, 42.0)">H</text><text xml:space="preserve" font-family="Montserrat-SemiBoldItalic" font-style="italic" font-weight="bold" font-size="33.0" fill="#000000" transform="matrix(1.00, 0.00, -0.00, -1.00, 700.4, 42.0)">N</text><text xml:space="preserve" font-family="Montserrat-SemiBoldItalic" font-style="italic" font-weight="bold" font-size="33.0" fill="#000000" transform="matrix(1.00, 0.00, -0.00, -1.00, 734.2, 42.0)">I</text><text xml:space="preserve" font-family="Montserrat-SemiBoldItalic" font-style="italic" font-weight="bold" font-size="33.0" fill="#000000" transform="matrix(1.00, 0.00, -0.00, -1.00, 751.8, 42.0)">C</text><text xml:space="preserve" font-family="Montserrat-SemiBoldItalic" font-style="italic" font-weight="bold" font-size="33.0" fill="#000000" transform="matrix(1.00, 0.00, -0.00, -1.00, 782.4, 42.0)">A</text><text xml:space="preserve" font-family="Montserrat-SemiBoldItalic" font-style="italic" font-weight="bold" font-size="33.0" fill="#000000" transform="matrix(1.00, 0.00, -0.00, -1.00, 814.1, 42.0)">L</text><text xml:space="preserve" font-family="Montserrat-SemiBoldItalic" font-style="italic" font-weight="bold" font-size="33.0" fill="#000000" transform="matrix(1.00, 0.00, -0.00, -1.00, 841.0, 42.0)"> </text><text xml:space="preserve" font-family="Montserrat-SemiBoldItalic" font-style="italic" font-weight="bold" font-size="33.0" fill="#000000" transform="matrix(1.00, 0.00, -0.00, -1.00, 4.0, 2.0)">P</text><text xml:space="preserve" font-family="Montserrat-SemiBoldItalic" font-style="italic" font-weight="bold" font-size="33.0" fill="#000000" transform="matrix(1.00, 0.00, -0.00, -1.00, 34.7, 2.0)">R</text><text xml:space="preserve" font-family="Montserrat-SemiBoldItalic" font-style="italic" font-weight="bold" font-size="33.0" fill="#000000" transform="matrix(1.00, 0.00, -0.00, -1.00, 65.9, 2.0)">O</text><text xml:space="preserve" font-family="Montserrat-SemiBoldItalic" font-style="italic" font-weight="bold" font-size="33.0" fill="#000000" transform="matrix(1.00, 0.00, -0.00, -1.00, 100.8, 2.0)">D</text><text xml:space="preserve" font-family="Montserrat-SemiBoldItalic" font-style="italic" font-weight="bold" font-size="33.0" fill="#000000" transform="matrix(1.00, 0.00, -0.00, -1.00, 135.1, 2.0)">U</text><text xml:space="preserve" font-family="Montserrat-SemiBoldItalic" font-style="italic" font-weight="bold" font-size="33.0" fill="#000000" transform="matrix(1.00, 0.00, -0.00, -1.00, 168.2, 2.0)">C</text><text xml:space="preserve" font-family="Montserrat-SemiBoldItalic" font-style="italic" font-weight="bold" font-size="33.0" fill="#000000" transform="matrix(1.00, 0.00, -0.00, -1.00, 199.0, 2.0)">T</text><text xml:space="preserve" font-family="Montserrat-SemiBoldItalic" font-style="italic" font-weight="bold" font-size="33.0" fill="#000000" transform="matrix(1.00, 0.00, -0.00, -1.00, 225.9, 2.0)">I</text><text xml:space="preserve" font-family="Montserrat-SemiBoldItalic" font-style="italic" font-weight="bold" font-size="33.0" fill="#000000" transform="matrix(1.00, 0.00, -0.00, -1.00, 243.5, 2.0)">O</text><text xml:space="preserve" font-family="Montserrat-SemiBoldItalic" font-style="italic" font-weight="bold" font-size="33.0" fill="#000000" transform="matrix(1.00, 0.00, -0.00, -1.00, 278.4, 2.0)">N</text><text xml:space="preserve" font-family="Montserrat-SemiBoldItalic" font-style="italic" font-weight="bold" font-size="33.0" fill="#000000" transform="matrix(1.00, 0.00, -0.00, -1.00, 312.2, 2.0)"> </text><text xml:space="preserve" font-family="Montserrat-SemiBoldItalic" font-style="italic" font-weight="bold" font-size="33.0" fill="#000000" transform="matrix(1.00, 0.00, -0.00, -1.00, 328.4, 2.0)">I</text><text xml:space="preserve" font-family="Montserrat-SemiBoldItalic" font-style="italic" font-weight="bold" font-size="33.0" fill="#000000" transform="matrix(1.00, 0.00, -0.00, -1.00, 346.0, 2.0)">N</text><text xml:space="preserve" font-family="Montserrat-SemiBoldItalic" font-style="italic" font-weight="bold" font-size="33.0" fill="#000000" transform="matrix(1.00, 0.00, -0.00, -1.00, 379.8, 2.0)">C</text><text xml:space="preserve" font-family="Montserrat-SemiBoldItalic" font-style="italic" font-weight="bold" font-size="33.0" fill="#000000" transform="matrix(1.00, 0.00, -0.00, -1.00, 410.8, 2.0)">I</text><text xml:space="preserve" font-family="Montserrat-SemiBoldItalic" font-style="italic" font-weight="bold" font-size="33.0" fill="#000000" transform="matrix(1.00, 0.00, -0.00, -1.00, 428.4, 2.0)">D</text><text xml:space="preserve" font-family="Montserrat-SemiBoldItalic" font-style="italic" font-weight="bold" font-size="33.0" fill="#000000" transform="matrix(1.00, 0.00, -0.00, -1.00, 462.8, 2.0)">E</text><text xml:space="preserve" font-family="Montserrat-SemiBoldItalic" font-style="italic" font-weight="bold" font-size="33.0" fill="#000000" transform="matrix(1.00, 0.00, -0.00, -1.00, 491.9, 2.0)">N</text><text xml:space="preserve" font-family="Montserrat-SemiBoldItalic" font-style="italic" font-weight="bold" font-size="33.0" fill="#000000" transform="matrix(1.00, 0.00, -0.00, -1.00, 525.7, 2.0)">T</text><text xml:space="preserve" font-family="Montserrat-SemiBoldItalic" font-style="italic" font-weight="bold" font-size="33.0" fill="#000000" transform="matrix(1.00, 0.00, -0.00, -1.00, 552.5, 2.0)">S</text></g></svg>