<?xml version="1.0" encoding="UTF-8"?><svg xmlns="http://www.w3.org/2000/svg" xmlns:xlink="http://www.w3.org/1999/xlink" clip-rule="evenodd" stroke-miterlimit="4.00" viewBox="0 0 1919 1080"><desc>SVG generated by Keynote</desc><defs></defs><g transform="matrix(1.00, 0.00, -0.00, -1.00, 0.0, 1080.0)"><path d="M 0.0 0.0 L 1919.0 0.0 L 1919.0 1080.0 L 0.0 1080.0 Z M 0.0 0.0 " fill="#2A418F"></path><image xlink:href="A44FBBC5B711AB617B97F7BC8FE9F0B2.png" width="413.00" height="309.00" transform="matrix(1.00, 0.00, -0.00, -1.00, 1352.0, 533.0)"></image><text xml:space="preserve" font-family="Montserrat-Bold" font-weight="bold" font-size="138.0" fill="#FFFFFF" transform="matrix(1.00, 0.00, -0.00, -1.00, 576.0, 341.0)">T</text><text xml:space="preserve" font-family="Montserrat-Bold" font-weight="bold" font-size="138.0" fill="#FFFFFF" transform="matrix(1.00, 0.00, -0.00, -1.00, 661.3, 341.0)">H</text><text xml:space="preserve" font-family="Montserrat-Bold" font-weight="bold" font-size="138.0" fill="#FFFFFF" transform="matrix(1.00, 0.00, -0.00, -1.00, 772.8, 341.0)">A</text><text xml:space="preserve" font-family="Montserrat-Bold" font-weight="bold" font-size="138.0" fill="#FFFFFF" transform="matrix(1.00, 0.00, -0.00, -1.00, 878.5, 341.0)">N</text><text xml:space="preserve" font-family="Montserrat-Bold" font-weight="bold" font-size="138.0" fill="#FFFFFF" transform="matrix(1.00, 0.00, -0.00, -1.00, 990.0, 341.0)">K</text><text xml:space="preserve" font-family="Montserrat-Bold" font-weight="bold" font-size="138.0" fill="#FFFFFF" transform="matrix(1.00, 0.00, -0.00, -1.00, 1092.1, 341.0)"> </text><text xml:space="preserve" font-family="Montserrat-Bold" font-weight="bold" font-size="138.0" fill="#FFFFFF" transform="matrix(1.00, 0.00, -0.00, -1.00, 1131.2, 341.0)">Y</text><text xml:space="preserve" font-family="Montserrat-Bold" font-weight="bold" font-size="138.0" fill="#FFFFFF" transform="matrix(1.00, 0.00, -0.00, -1.00, 1220.3, 341.0)">O</text><text xml:space="preserve" font-family="Montserrat-Bold" font-weight="bold" font-size="138.0" fill="#FFFFFF" transform="matrix(1.00, 0.00, -0.00, -1.00, 1336.8, 341.0)">U</text><text xml:space="preserve" font-family="Montserrat-Bold" font-weight="bold" font-size="138.0" fill="#FFFFFF" transform="matrix(1.00, 0.00, -0.00, -1.00, 1445.5, 341.0)"> </text><text xml:space="preserve" font-family="Montserrat-Bold" font-weight="bold" font-size="57.0" fill="#FFFFFF" transform="matrix(1.00, 0.00, -0.00, -1.00, 761.0, 265.0)">F</text><text xml:space="preserve" font-family="Montserrat-Bold" font-weight="bold" font-size="57.0" fill="#FFFFFF" transform="matrix(1.00, 0.00, -0.00, -1.00, 797.0, 265.0)">O</text><text xml:space="preserve" font-family="Montserrat-Bold" font-weight="bold" font-size="57.0" fill="#FFFFFF" transform="matrix(1.00, 0.00, -0.00, -1.00, 845.1, 265.0)">R</text><text xml:space="preserve" font-family="Montserrat-Bold" font-weight="bold" font-size="57.0" fill="#FFFFFF" transform="matrix(1.00, 0.00, -0.00, -1.00, 887.0, 265.0)"> </text><text xml:space="preserve" font-family="Montserrat-Bold" font-weight="bold" font-size="57.0" fill="#FFFFFF" transform="matrix(1.00, 0.00, -0.00, -1.00, 903.2, 265.0)">Y</text><text xml:space="preserve" font-family="Montserrat-Bold" font-weight="bold" font-size="57.0" fill="#FFFFFF" transform="matrix(1.00, 0.00, -0.00, -1.00, 940.0, 265.0)">O</text><text xml:space="preserve" font-family="Montserrat-Bold" font-weight="bold" font-size="57.0" fill="#FFFFFF" transform="matrix(1.00, 0.00, -0.00, -1.00, 988.1, 265.0)">U</text><text xml:space="preserve" font-family="Montserrat-Bold" font-weight="bold" font-size="57.0" fill="#FFFFFF" transform="matrix(1.00, 0.00, -0.00, -1.00, 1033.0, 265.0)">R</text><text xml:space="preserve" font-family="Montserrat-Bold" font-weight="bold" font-size="57.0" fill="#FFFFFF" transform="matrix(1.00, 0.00, -0.00, -1.00, 1074.9, 265.0)"> </text><text xml:space="preserve" font-family="Montserrat-Bold" font-weight="bold" font-size="57.0" fill="#FFFFFF" transform="matrix(1.00, 0.00, -0.00, -1.00, 1091.0, 265.0)">A</text><text xml:space="preserve" font-family="Montserrat-Bold" font-weight="bold" font-size="57.0" fill="#FFFFFF" transform="matrix(1.00, 0.00, -0.00, -1.00, 1132.7, 265.0)">T</text><text xml:space="preserve" font-family="Montserrat-Bold" font-weight="bold" font-size="57.0" fill="#FFFFFF" transform="matrix(1.00, 0.00, -0.00, -1.00, 1168.5, 265.0)">T</text><text xml:space="preserve" font-family="Montserrat-Bold" font-weight="bold" font-size="57.0" fill="#FFFFFF" transform="matrix(1.00, 0.00, -0.00, -1.00, 1203.7, 265.0)">E</text><text xml:space="preserve" font-family="Montserrat-Bold" font-weight="bold" font-size="57.0" fill="#FFFFFF" transform="matrix(1.00, 0.00, -0.00, -1.00, 1242.0, 265.0)">N</text><text xml:space="preserve" font-family="Montserrat-Bold" font-weight="bold" font-size="57.0" fill="#FFFFFF" transform="matrix(1.00, 0.00, -0.00, -1.00, 1288.0, 265.0)">T</text><text xml:space="preserve" font-family="Montserrat-Bold" font-weight="bold" font-size="57.0" fill="#FFFFFF" transform="matrix(1.00, 0.00, -0.00, -1.00, 1323.2, 265.0)">I</text><text xml:space="preserve" font-family="Montserrat-Bold" font-weight="bold" font-size="57.0" fill="#FFFFFF" transform="matrix(1.00, 0.00, -0.00, -1.00, 1341.9, 265.0)">O</text><text xml:space="preserve" font-family="Montserrat-Bold" font-weight="bold" font-size="57.0" fill="#FFFFFF" transform="matrix(1.00, 0.00, -0.00, -1.00, 1390.1, 265.0)">N</text><text xml:space="preserve" font-family="Montserrat-Bold" font-weight="bold" font-size="57.0" fill="#FFFFFF" transform="matrix(1.00, 0.00, -0.00, -1.00, 1436.1, 265.0)"> </text></g></svg>