<?xml version="1.0" encoding="UTF-8"?><svg xmlns="http://www.w3.org/2000/svg" xmlns:xlink="http://www.w3.org/1999/xlink" clip-rule="evenodd" stroke-miterlimit="4.00" viewBox="0 0 720 69"><desc>SVG generated by Keynote</desc><defs></defs><g transform="matrix(1.00, 0.00, -0.00, -1.00, 0.0, 69.0)"><text xml:space="preserve" font-family="Montserrat-SemiBoldItalic" font-style="italic" font-weight="bold" font-size="33.0" fill="#000000" transform="matrix(1.00, 0.00, -0.00, -1.00, 1.0, 42.0)">C</text><text xml:space="preserve" font-family="Montserrat-SemiBoldItalic" font-style="italic" font-weight="bold" font-size="33.0" fill="#000000" transform="matrix(1.00, 0.00, -0.00, -1.00, 31.6, 42.0)">A</text><text xml:space="preserve" font-family="Montserrat-SemiBoldItalic" font-style="italic" font-weight="bold" font-size="33.0" fill="#000000" transform="matrix(1.00, 0.00, -0.00, -1.00, 63.4, 42.0)">R</text><text xml:space="preserve" font-family="Montserrat-SemiBoldItalic" font-style="italic" font-weight="bold" font-size="33.0" fill="#000000" transform="matrix(1.00, 0.00, -0.00, -1.00, 94.6, 42.0)">R</text><text xml:space="preserve" font-family="Montserrat-SemiBoldItalic" font-style="italic" font-weight="bold" font-size="33.0" fill="#000000" transform="matrix(1.00, 0.00, -0.00, -1.00, 125.4, 42.0)">Y</text><text xml:space="preserve" font-family="Montserrat-SemiBoldItalic" font-style="italic" font-weight="bold" font-size="33.0" fill="#000000" transform="matrix(1.00, 0.00, -0.00, -1.00, 154.3, 42.0)"> </text><text xml:space="preserve" font-family="Montserrat-SemiBoldItalic" font-style="italic" font-weight="bold" font-size="33.0" fill="#000000" transform="matrix(1.00, 0.00, -0.00, -1.00, 170.5, 42.0)">O</text><text xml:space="preserve" font-family="Montserrat-SemiBoldItalic" font-style="italic" font-weight="bold" font-size="33.0" fill="#000000" transform="matrix(1.00, 0.00, -0.00, -1.00, 205.3, 42.0)">U</text><text xml:space="preserve" font-family="Montserrat-SemiBoldItalic" font-style="italic" font-weight="bold" font-size="33.0" fill="#000000" transform="matrix(1.00, 0.00, -0.00, -1.00, 238.0, 42.0)">T</text><text xml:space="preserve" font-family="Montserrat-SemiBoldItalic" font-style="italic" font-weight="bold" font-size="33.0" fill="#000000" transform="matrix(1.00, 0.00, -0.00, -1.00, 265.0, 42.0)"> </text><text xml:space="preserve" font-family="Montserrat-SemiBoldItalic" font-style="italic" font-weight="bold" font-size="33.0" fill="#000000" transform="matrix(1.00, 0.00, -0.00, -1.00, 281.1, 42.0)">T</text><text xml:space="preserve" font-family="Montserrat-SemiBoldItalic" font-style="italic" font-weight="bold" font-size="33.0" fill="#000000" transform="matrix(1.00, 0.00, -0.00, -1.00, 308.1, 42.0)">H</text><text xml:space="preserve" font-family="Montserrat-SemiBoldItalic" font-style="italic" font-weight="bold" font-size="33.0" fill="#000000" transform="matrix(1.00, 0.00, -0.00, -1.00, 341.9, 42.0)">E</text><text xml:space="preserve" font-family="Montserrat-SemiBoldItalic" font-style="italic" font-weight="bold" font-size="33.0" fill="#000000" transform="matrix(1.00, 0.00, -0.00, -1.00, 371.1, 42.0)"> </text><text xml:space="preserve" font-family="Montserrat-SemiBoldItalic" font-style="italic" font-weight="bold" font-size="33.0" fill="#000000" transform="matrix(1.00, 0.00, -0.00, -1.00, 387.2, 42.0)">“</text><text xml:space="preserve" font-family="Montserrat-SemiBoldItalic" font-style="italic" font-weight="bold" font-size="33.0" fill="#000000" transform="matrix(1.00, 0.00, -0.00, -1.00, 409.4, 42.0)">P</text><text xml:space="preserve" font-family="Montserrat-SemiBoldItalic" font-style="italic" font-weight="bold" font-size="33.0" fill="#000000" transform="matrix(1.00, 0.00, -0.00, -1.00, 440.1, 42.0)">R</text><text xml:space="preserve" font-family="Montserrat-SemiBoldItalic" font-style="italic" font-weight="bold" font-size="33.0" fill="#000000" transform="matrix(1.00, 0.00, -0.00, -1.00, 471.3, 42.0)">O</text><text xml:space="preserve" font-family="Montserrat-SemiBoldItalic" font-style="italic" font-weight="bold" font-size="33.0" fill="#000000" transform="matrix(1.00, 0.00, -0.00, -1.00, 506.1, 42.0)">D</text><text xml:space="preserve" font-family="Montserrat-SemiBoldItalic" font-style="italic" font-weight="bold" font-size="33.0" fill="#000000" transform="matrix(1.00, 0.00, -0.00, -1.00, 540.4, 42.0)">U</text><text xml:space="preserve" font-family="Montserrat-SemiBoldItalic" font-style="italic" font-weight="bold" font-size="33.0" fill="#000000" transform="matrix(1.00, 0.00, -0.00, -1.00, 573.6, 42.0)">C</text><text xml:space="preserve" font-family="Montserrat-SemiBoldItalic" font-style="italic" font-weight="bold" font-size="33.0" fill="#000000" transform="matrix(1.00, 0.00, -0.00, -1.00, 604.3, 42.0)">T</text><text xml:space="preserve" font-family="Montserrat-SemiBoldItalic" font-style="italic" font-weight="bold" font-size="33.0" fill="#000000" transform="matrix(1.00, 0.00, -0.00, -1.00, 631.3, 42.0)">I</text><text xml:space="preserve" font-family="Montserrat-SemiBoldItalic" font-style="italic" font-weight="bold" font-size="33.0" fill="#000000" transform="matrix(1.00, 0.00, -0.00, -1.00, 648.9, 42.0)">O</text><text xml:space="preserve" font-family="Montserrat-SemiBoldItalic" font-style="italic" font-weight="bold" font-size="33.0" fill="#000000" transform="matrix(1.00, 0.00, -0.00, -1.00, 683.7, 42.0)">N</text><text xml:space="preserve" font-family="Montserrat-SemiBoldItalic" font-style="italic" font-weight="bold" font-size="33.0" fill="#000000" transform="matrix(1.00, 0.00, -0.00, -1.00, 717.5, 42.0)"> </text><text xml:space="preserve" font-family="Montserrat-SemiBoldItalic" font-style="italic" font-weight="bold" font-size="33.0" fill="#000000" transform="matrix(1.00, 0.00, -0.00, -1.00, 1.0, 2.0)">P</text><text xml:space="preserve" font-family="Montserrat-SemiBoldItalic" font-style="italic" font-weight="bold" font-size="33.0" fill="#000000" transform="matrix(1.00, 0.00, -0.00, -1.00, 31.7, 2.0)">H</text><text xml:space="preserve" font-family="Montserrat-SemiBoldItalic" font-style="italic" font-weight="bold" font-size="33.0" fill="#000000" transform="matrix(1.00, 0.00, -0.00, -1.00, 65.5, 2.0)">A</text><text xml:space="preserve" font-family="Montserrat-SemiBoldItalic" font-style="italic" font-weight="bold" font-size="33.0" fill="#000000" transform="matrix(1.00, 0.00, -0.00, -1.00, 97.3, 2.0)">S</text><text xml:space="preserve" font-family="Montserrat-SemiBoldItalic" font-style="italic" font-weight="bold" font-size="33.0" fill="#000000" transform="matrix(1.00, 0.00, -0.00, -1.00, 125.1, 2.0)">E</text><text xml:space="preserve" font-family="Montserrat-SemiBoldItalic" font-style="italic" font-weight="bold" font-size="33.0" fill="#000000" transform="matrix(1.00, 0.00, -0.00, -1.00, 154.3, 2.0)">”</text><text xml:space="preserve" font-family="Montserrat-SemiBoldItalic" font-style="italic" font-weight="bold" font-size="33.0" fill="#000000" transform="matrix(1.00, 0.00, -0.00, -1.00, 176.4, 2.0)"> </text><text xml:space="preserve" font-family="Montserrat-SemiBoldItalic" font-style="italic" font-weight="bold" font-size="33.0" fill="#000000" transform="matrix(1.00, 0.00, -0.00, -1.00, 192.6, 2.0)">O</text><text xml:space="preserve" font-family="Montserrat-SemiBoldItalic" font-style="italic" font-weight="bold" font-size="33.0" fill="#000000" transform="matrix(1.00, 0.00, -0.00, -1.00, 227.5, 2.0)">F</text><text xml:space="preserve" font-family="Montserrat-SemiBoldItalic" font-style="italic" font-weight="bold" font-size="33.0" fill="#000000" transform="matrix(1.00, 0.00, -0.00, -1.00, 255.6, 2.0)"> </text><text xml:space="preserve" font-family="Montserrat-SemiBoldItalic" font-style="italic" font-weight="bold" font-size="33.0" fill="#000000" transform="matrix(1.00, 0.00, -0.00, -1.00, 271.7, 2.0)">A</text><text xml:space="preserve" font-family="Montserrat-SemiBoldItalic" font-style="italic" font-weight="bold" font-size="33.0" fill="#000000" transform="matrix(1.00, 0.00, -0.00, -1.00, 303.5, 2.0)">P</text><text xml:space="preserve" font-family="Montserrat-SemiBoldItalic" font-style="italic" font-weight="bold" font-size="33.0" fill="#000000" transform="matrix(1.00, 0.00, -0.00, -1.00, 334.2, 2.0)">P</text><text xml:space="preserve" font-family="Montserrat-SemiBoldItalic" font-style="italic" font-weight="bold" font-size="33.0" fill="#000000" transform="matrix(1.00, 0.00, -0.00, -1.00, 364.9, 2.0)">L</text><text xml:space="preserve" font-family="Montserrat-SemiBoldItalic" font-style="italic" font-weight="bold" font-size="33.0" fill="#000000" transform="matrix(1.00, 0.00, -0.00, -1.00, 391.8, 2.0)">I</text><text xml:space="preserve" font-family="Montserrat-SemiBoldItalic" font-style="italic" font-weight="bold" font-size="33.0" fill="#000000" transform="matrix(1.00, 0.00, -0.00, -1.00, 409.4, 2.0)">C</text><text xml:space="preserve" font-family="Montserrat-SemiBoldItalic" font-style="italic" font-weight="bold" font-size="33.0" fill="#000000" transform="matrix(1.00, 0.00, -0.00, -1.00, 439.9, 2.0)">A</text><text xml:space="preserve" font-family="Montserrat-SemiBoldItalic" font-style="italic" font-weight="bold" font-size="33.0" fill="#000000" transform="matrix(1.00, 0.00, -0.00, -1.00, 470.6, 2.0)">T</text><text xml:space="preserve" font-family="Montserrat-SemiBoldItalic" font-style="italic" font-weight="bold" font-size="33.0" fill="#000000" transform="matrix(1.00, 0.00, -0.00, -1.00, 497.5, 2.0)">I</text><text xml:space="preserve" font-family="Montserrat-SemiBoldItalic" font-style="italic" font-weight="bold" font-size="33.0" fill="#000000" transform="matrix(1.00, 0.00, -0.00, -1.00, 515.1, 2.0)">O</text><text xml:space="preserve" font-family="Montserrat-SemiBoldItalic" font-style="italic" font-weight="bold" font-size="33.0" fill="#000000" transform="matrix(1.00, 0.00, -0.00, -1.00, 550.0, 2.0)">N</text><text xml:space="preserve" font-family="Montserrat-SemiBoldItalic" font-style="italic" font-weight="bold" font-size="33.0" fill="#000000" transform="matrix(1.00, 0.00, -0.00, -1.00, 583.8, 2.0)">S</text></g></svg>