<?xml version="1.0" encoding="UTF-8"?><svg xmlns="http://www.w3.org/2000/svg" xmlns:xlink="http://www.w3.org/1999/xlink" clip-rule="evenodd" stroke-miterlimit="4.00" viewBox="0 0 842 28"><desc>SVG generated by Keynote</desc><defs></defs><g transform="matrix(1.00, 0.00, -0.00, -1.00, 0.0, 28.0)"><text xml:space="preserve" font-family="Montserrat-Bold" font-weight="bold" font-size="33.0" fill="#000000" transform="matrix(1.00, 0.00, -0.00, -1.00, 3.0, 2.0)">A</text><text xml:space="preserve" font-family="Montserrat-Bold" font-weight="bold" font-size="33.0" fill="#000000" transform="matrix(1.00, 0.00, -0.00, -1.00, 35.3, 2.0)">P</text><text xml:space="preserve" font-family="Montserrat-Bold" font-weight="bold" font-size="33.0" fill="#000000" transform="matrix(1.00, 0.00, -0.00, -1.00, 66.2, 2.0)">P</text><text xml:space="preserve" font-family="Montserrat-Bold" font-weight="bold" font-size="33.0" fill="#000000" transform="matrix(1.00, 0.00, -0.00, -1.00, 97.1, 2.0)">L</text><text xml:space="preserve" font-family="Montserrat-Bold" font-weight="bold" font-size="33.0" fill="#000000" transform="matrix(1.00, 0.00, -0.00, -1.00, 124.1, 2.0)">I</text><text xml:space="preserve" font-family="Montserrat-Bold" font-weight="bold" font-size="33.0" fill="#000000" transform="matrix(1.00, 0.00, -0.00, -1.00, 142.0, 2.0)">C</text><text xml:space="preserve" font-family="Montserrat-Bold" font-weight="bold" font-size="33.0" fill="#000000" transform="matrix(1.00, 0.00, -0.00, -1.00, 172.8, 2.0)">A</text><text xml:space="preserve" font-family="Montserrat-Bold" font-weight="bold" font-size="33.0" fill="#000000" transform="matrix(1.00, 0.00, -0.00, -1.00, 204.0, 2.0)">T</text><text xml:space="preserve" font-family="Montserrat-Bold" font-weight="bold" font-size="33.0" fill="#000000" transform="matrix(1.00, 0.00, -0.00, -1.00, 231.5, 2.0)">I</text><text xml:space="preserve" font-family="Montserrat-Bold" font-weight="bold" font-size="33.0" fill="#000000" transform="matrix(1.00, 0.00, -0.00, -1.00, 249.4, 2.0)">O</text><text xml:space="preserve" font-family="Montserrat-Bold" font-weight="bold" font-size="33.0" fill="#000000" transform="matrix(1.00, 0.00, -0.00, -1.00, 284.3, 2.0)">N</text><text xml:space="preserve" font-family="Montserrat-Bold" font-weight="bold" font-size="33.0" fill="#000000" transform="matrix(1.00, 0.00, -0.00, -1.00, 318.1, 2.0)"> </text><text xml:space="preserve" font-family="Montserrat-Bold" font-weight="bold" font-size="33.0" fill="#000000" transform="matrix(1.00, 0.00, -0.00, -1.00, 334.5, 2.0)">O</text><text xml:space="preserve" font-family="Montserrat-Bold" font-weight="bold" font-size="33.0" fill="#000000" transform="matrix(1.00, 0.00, -0.00, -1.00, 369.4, 2.0)">P</text><text xml:space="preserve" font-family="Montserrat-Bold" font-weight="bold" font-size="33.0" fill="#000000" transform="matrix(1.00, 0.00, -0.00, -1.00, 400.3, 2.0)">E</text><text xml:space="preserve" font-family="Montserrat-Bold" font-weight="bold" font-size="33.0" fill="#000000" transform="matrix(1.00, 0.00, -0.00, -1.00, 429.5, 2.0)">R</text><text xml:space="preserve" font-family="Montserrat-Bold" font-weight="bold" font-size="33.0" fill="#000000" transform="matrix(1.00, 0.00, -0.00, -1.00, 460.8, 2.0)">A</text><text xml:space="preserve" font-family="Montserrat-Bold" font-weight="bold" font-size="33.0" fill="#000000" transform="matrix(1.00, 0.00, -0.00, -1.00, 492.0, 2.0)">T</text><text xml:space="preserve" font-family="Montserrat-Bold" font-weight="bold" font-size="33.0" fill="#000000" transform="matrix(1.00, 0.00, -0.00, -1.00, 519.5, 2.0)">I</text><text xml:space="preserve" font-family="Montserrat-Bold" font-weight="bold" font-size="33.0" fill="#000000" transform="matrix(1.00, 0.00, -0.00, -1.00, 537.4, 2.0)">O</text><text xml:space="preserve" font-family="Montserrat-Bold" font-weight="bold" font-size="33.0" fill="#000000" transform="matrix(1.00, 0.00, -0.00, -1.00, 572.3, 2.0)">N</text><text xml:space="preserve" font-family="Montserrat-Bold" font-weight="bold" font-size="33.0" fill="#000000" transform="matrix(1.00, 0.00, -0.00, -1.00, 606.1, 2.0)"> </text><text xml:space="preserve" font-family="Montserrat-Bold" font-weight="bold" font-size="33.0" fill="#000000" transform="matrix(1.00, 0.00, -0.00, -1.00, 622.5, 2.0)">S</text><text xml:space="preserve" font-family="Montserrat-Bold" font-weight="bold" font-size="33.0" fill="#000000" transform="matrix(1.00, 0.00, -0.00, -1.00, 650.6, 2.0)">E</text><text xml:space="preserve" font-family="Montserrat-Bold" font-weight="bold" font-size="33.0" fill="#000000" transform="matrix(1.00, 0.00, -0.00, -1.00, 679.8, 2.0)">R</text><text xml:space="preserve" font-family="Montserrat-Bold" font-weight="bold" font-size="33.0" fill="#000000" transform="matrix(1.00, 0.00, -0.00, -1.00, 711.1, 2.0)">V</text><text xml:space="preserve" font-family="Montserrat-Bold" font-weight="bold" font-size="33.0" fill="#000000" transform="matrix(1.00, 0.00, -0.00, -1.00, 742.3, 2.0)">I</text><text xml:space="preserve" font-family="Montserrat-Bold" font-weight="bold" font-size="33.0" fill="#000000" transform="matrix(1.00, 0.00, -0.00, -1.00, 760.2, 2.0)">C</text><text xml:space="preserve" font-family="Montserrat-Bold" font-weight="bold" font-size="33.0" fill="#000000" transform="matrix(1.00, 0.00, -0.00, -1.00, 791.5, 2.0)">E</text><text xml:space="preserve" font-family="Montserrat-Bold" font-weight="bold" font-size="33.0" fill="#000000" transform="matrix(1.00, 0.00, -0.00, -1.00, 820.7, 2.0)">S</text></g></svg>