<?xml version="1.0" encoding="UTF-8"?><svg xmlns="http://www.w3.org/2000/svg" xmlns:xlink="http://www.w3.org/1999/xlink" clip-rule="evenodd" stroke-miterlimit="4.00" viewBox="0 0 709 68"><desc>SVG generated by Keynote</desc><defs></defs><g transform="matrix(1.00, 0.00, -0.00, -1.00, 0.0, 68.0)"><text xml:space="preserve" font-family="Montserrat-SemiBoldItalic" font-style="italic" font-weight="bold" font-size="33.0" fill="#000000" transform="matrix(1.00, 0.00, -0.00, -1.00, 4.0, 43.0)">P</text><text xml:space="preserve" font-family="Montserrat-SemiBoldItalic" font-style="italic" font-weight="bold" font-size="33.0" fill="#000000" transform="matrix(1.00, 0.00, -0.00, -1.00, 34.7, 43.0)">R</text><text xml:space="preserve" font-family="Montserrat-SemiBoldItalic" font-style="italic" font-weight="bold" font-size="33.0" fill="#000000" transform="matrix(1.00, 0.00, -0.00, -1.00, 65.9, 43.0)">O</text><text xml:space="preserve" font-family="Montserrat-SemiBoldItalic" font-style="italic" font-weight="bold" font-size="33.0" fill="#000000" transform="matrix(1.00, 0.00, -0.00, -1.00, 100.0, 43.0)">V</text><text xml:space="preserve" font-family="Montserrat-SemiBoldItalic" font-style="italic" font-weight="bold" font-size="33.0" fill="#000000" transform="matrix(1.00, 0.00, -0.00, -1.00, 130.7, 43.0)">I</text><text xml:space="preserve" font-family="Montserrat-SemiBoldItalic" font-style="italic" font-weight="bold" font-size="33.0" fill="#000000" transform="matrix(1.00, 0.00, -0.00, -1.00, 148.3, 43.0)">D</text><text xml:space="preserve" font-family="Montserrat-SemiBoldItalic" font-style="italic" font-weight="bold" font-size="33.0" fill="#000000" transform="matrix(1.00, 0.00, -0.00, -1.00, 182.6, 43.0)">E</text><text xml:space="preserve" font-family="Montserrat-SemiBoldItalic" font-style="italic" font-weight="bold" font-size="33.0" fill="#000000" transform="matrix(1.00, 0.00, -0.00, -1.00, 211.8, 43.0)"> </text><text xml:space="preserve" font-family="Montserrat-SemiBoldItalic" font-style="italic" font-weight="bold" font-size="33.0" fill="#000000" transform="matrix(1.00, 0.00, -0.00, -1.00, 228.0, 43.0)">S</text><text xml:space="preserve" font-family="Montserrat-SemiBoldItalic" font-style="italic" font-weight="bold" font-size="33.0" fill="#000000" transform="matrix(1.00, 0.00, -0.00, -1.00, 255.8, 43.0)">U</text><text xml:space="preserve" font-family="Montserrat-SemiBoldItalic" font-style="italic" font-weight="bold" font-size="33.0" fill="#000000" transform="matrix(1.00, 0.00, -0.00, -1.00, 288.9, 43.0)">P</text><text xml:space="preserve" font-family="Montserrat-SemiBoldItalic" font-style="italic" font-weight="bold" font-size="33.0" fill="#000000" transform="matrix(1.00, 0.00, -0.00, -1.00, 319.6, 43.0)">P</text><text xml:space="preserve" font-family="Montserrat-SemiBoldItalic" font-style="italic" font-weight="bold" font-size="33.0" fill="#000000" transform="matrix(1.00, 0.00, -0.00, -1.00, 350.6, 43.0)">O</text><text xml:space="preserve" font-family="Montserrat-SemiBoldItalic" font-style="italic" font-weight="bold" font-size="33.0" fill="#000000" transform="matrix(1.00, 0.00, -0.00, -1.00, 385.5, 43.0)">R</text><text xml:space="preserve" font-family="Montserrat-SemiBoldItalic" font-style="italic" font-weight="bold" font-size="33.0" fill="#000000" transform="matrix(1.00, 0.00, -0.00, -1.00, 416.3, 43.0)">T</text><text xml:space="preserve" font-family="Montserrat-SemiBoldItalic" font-style="italic" font-weight="bold" font-size="33.0" fill="#000000" transform="matrix(1.00, 0.00, -0.00, -1.00, 443.3, 43.0)"> </text><text xml:space="preserve" font-family="Montserrat-SemiBoldItalic" font-style="italic" font-weight="bold" font-size="33.0" fill="#000000" transform="matrix(1.00, 0.00, -0.00, -1.00, 459.5, 43.0)">F</text><text xml:space="preserve" font-family="Montserrat-SemiBoldItalic" font-style="italic" font-weight="bold" font-size="33.0" fill="#000000" transform="matrix(1.00, 0.00, -0.00, -1.00, 487.3, 43.0)">O</text><text xml:space="preserve" font-family="Montserrat-SemiBoldItalic" font-style="italic" font-weight="bold" font-size="33.0" fill="#000000" transform="matrix(1.00, 0.00, -0.00, -1.00, 522.1, 43.0)">R</text><text xml:space="preserve" font-family="Montserrat-SemiBoldItalic" font-style="italic" font-weight="bold" font-size="33.0" fill="#000000" transform="matrix(1.00, 0.00, -0.00, -1.00, 553.3, 43.0)"> </text><text xml:space="preserve" font-family="Montserrat-SemiBoldItalic" font-style="italic" font-weight="bold" font-size="33.0" fill="#000000" transform="matrix(1.00, 0.00, -0.00, -1.00, 4.0, 3.0)">A</text><text xml:space="preserve" font-family="Montserrat-SemiBoldItalic" font-style="italic" font-weight="bold" font-size="33.0" fill="#000000" transform="matrix(1.00, 0.00, -0.00, -1.00, 35.8, 3.0)">P</text><text xml:space="preserve" font-family="Montserrat-SemiBoldItalic" font-style="italic" font-weight="bold" font-size="33.0" fill="#000000" transform="matrix(1.00, 0.00, -0.00, -1.00, 66.5, 3.0)">P</text><text xml:space="preserve" font-family="Montserrat-SemiBoldItalic" font-style="italic" font-weight="bold" font-size="33.0" fill="#000000" transform="matrix(1.00, 0.00, -0.00, -1.00, 97.2, 3.0)">L</text><text xml:space="preserve" font-family="Montserrat-SemiBoldItalic" font-style="italic" font-weight="bold" font-size="33.0" fill="#000000" transform="matrix(1.00, 0.00, -0.00, -1.00, 124.0, 3.0)">I</text><text xml:space="preserve" font-family="Montserrat-SemiBoldItalic" font-style="italic" font-weight="bold" font-size="33.0" fill="#000000" transform="matrix(1.00, 0.00, -0.00, -1.00, 141.6, 3.0)">C</text><text xml:space="preserve" font-family="Montserrat-SemiBoldItalic" font-style="italic" font-weight="bold" font-size="33.0" fill="#000000" transform="matrix(1.00, 0.00, -0.00, -1.00, 172.2, 3.0)">A</text><text xml:space="preserve" font-family="Montserrat-SemiBoldItalic" font-style="italic" font-weight="bold" font-size="33.0" fill="#000000" transform="matrix(1.00, 0.00, -0.00, -1.00, 202.8, 3.0)">T</text><text xml:space="preserve" font-family="Montserrat-SemiBoldItalic" font-style="italic" font-weight="bold" font-size="33.0" fill="#000000" transform="matrix(1.00, 0.00, -0.00, -1.00, 229.8, 3.0)">I</text><text xml:space="preserve" font-family="Montserrat-SemiBoldItalic" font-style="italic" font-weight="bold" font-size="33.0" fill="#000000" transform="matrix(1.00, 0.00, -0.00, -1.00, 247.4, 3.0)">O</text><text xml:space="preserve" font-family="Montserrat-SemiBoldItalic" font-style="italic" font-weight="bold" font-size="33.0" fill="#000000" transform="matrix(1.00, 0.00, -0.00, -1.00, 282.2, 3.0)">N</text><text xml:space="preserve" font-family="Montserrat-SemiBoldItalic" font-style="italic" font-weight="bold" font-size="33.0" fill="#000000" transform="matrix(1.00, 0.00, -0.00, -1.00, 316.0, 3.0)">’</text><text xml:space="preserve" font-family="Montserrat-SemiBoldItalic" font-style="italic" font-weight="bold" font-size="33.0" fill="#000000" transform="matrix(1.00, 0.00, -0.00, -1.00, 331.5, 3.0)">S</text><text xml:space="preserve" font-family="Montserrat-SemiBoldItalic" font-style="italic" font-weight="bold" font-size="33.0" fill="#000000" transform="matrix(1.00, 0.00, -0.00, -1.00, 359.3, 3.0)"> </text><text xml:space="preserve" font-family="Montserrat-SemiBoldItalic" font-style="italic" font-weight="bold" font-size="33.0" fill="#000000" transform="matrix(1.00, 0.00, -0.00, -1.00, 375.5, 3.0)">M</text><text xml:space="preserve" font-family="Montserrat-SemiBoldItalic" font-style="italic" font-weight="bold" font-size="33.0" fill="#000000" transform="matrix(1.00, 0.00, -0.00, -1.00, 414.1, 3.0)">A</text><text xml:space="preserve" font-family="Montserrat-SemiBoldItalic" font-style="italic" font-weight="bold" font-size="33.0" fill="#000000" transform="matrix(1.00, 0.00, -0.00, -1.00, 445.9, 3.0)">I</text><text xml:space="preserve" font-family="Montserrat-SemiBoldItalic" font-style="italic" font-weight="bold" font-size="33.0" fill="#000000" transform="matrix(1.00, 0.00, -0.00, -1.00, 463.5, 3.0)">N</text><text xml:space="preserve" font-family="Montserrat-SemiBoldItalic" font-style="italic" font-weight="bold" font-size="33.0" fill="#000000" transform="matrix(1.00, 0.00, -0.00, -1.00, 497.3, 3.0)">T</text><text xml:space="preserve" font-family="Montserrat-SemiBoldItalic" font-style="italic" font-weight="bold" font-size="33.0" fill="#000000" transform="matrix(1.00, 0.00, -0.00, -1.00, 524.2, 3.0)">E</text><text xml:space="preserve" font-family="Montserrat-SemiBoldItalic" font-style="italic" font-weight="bold" font-size="33.0" fill="#000000" transform="matrix(1.00, 0.00, -0.00, -1.00, 553.4, 3.0)">N</text><text xml:space="preserve" font-family="Montserrat-SemiBoldItalic" font-style="italic" font-weight="bold" font-size="33.0" fill="#000000" transform="matrix(1.00, 0.00, -0.00, -1.00, 587.2, 3.0)">A</text><text xml:space="preserve" font-family="Montserrat-SemiBoldItalic" font-style="italic" font-weight="bold" font-size="33.0" fill="#000000" transform="matrix(1.00, 0.00, -0.00, -1.00, 619.0, 3.0)">N</text><text xml:space="preserve" font-family="Montserrat-SemiBoldItalic" font-style="italic" font-weight="bold" font-size="33.0" fill="#000000" transform="matrix(1.00, 0.00, -0.00, -1.00, 652.8, 3.0)">C</text><text xml:space="preserve" font-family="Montserrat-SemiBoldItalic" font-style="italic" font-weight="bold" font-size="33.0" fill="#000000" transform="matrix(1.00, 0.00, -0.00, -1.00, 683.8, 3.0)">E</text></g></svg>