<?xml version="1.0" encoding="UTF-8"?><svg xmlns="http://www.w3.org/2000/svg" xmlns:xlink="http://www.w3.org/1999/xlink" clip-rule="evenodd" stroke-miterlimit="4.00" viewBox="0 0 1508 195"><desc>SVG generated by Keynote</desc><defs></defs><g transform="matrix(1.00, 0.00, -0.00, -1.00, 0.0, 195.0)"><text xml:space="preserve" font-family="Montserrat-Bold" font-weight="bold" font-size="239.0" fill="#F7F7F7" transform="matrix(1.00, 0.00, -0.00, -1.00, -5.0, 4.0)">S</text><text xml:space="preserve" font-family="Montserrat-Bold" font-weight="bold" font-size="239.0" fill="#F7F7F7" transform="matrix(1.00, 0.00, -0.00, -1.00, 147.5, 4.0)">u</text><text xml:space="preserve" font-family="Montserrat-Bold" font-weight="bold" font-size="239.0" fill="#F7F7F7" transform="matrix(1.00, 0.00, -0.00, -1.00, 311.7, 4.0)">b</text><text xml:space="preserve" font-family="Montserrat-Bold" font-weight="bold" font-size="239.0" fill="#F7F7F7" transform="matrix(1.00, 0.00, -0.00, -1.00, 476.6, 4.0)">s</text><text xml:space="preserve" font-family="Montserrat-Bold" font-weight="bold" font-size="239.0" fill="#F7F7F7" transform="matrix(1.00, 0.00, -0.00, -1.00, 603.5, 4.0)">i</text><text xml:space="preserve" font-family="Montserrat-Bold" font-weight="bold" font-size="239.0" fill="#F7F7F7" transform="matrix(1.00, 0.00, -0.00, -1.00, 675.4, 4.0)">d</text><text xml:space="preserve" font-family="Montserrat-Bold" font-weight="bold" font-size="239.0" fill="#F7F7F7" transform="matrix(1.00, 0.00, -0.00, -1.00, 840.8, 4.0)">i</text><text xml:space="preserve" font-family="Montserrat-Bold" font-weight="bold" font-size="239.0" fill="#F7F7F7" transform="matrix(1.00, 0.00, -0.00, -1.00, 912.8, 4.0)">a</text><text xml:space="preserve" font-family="Montserrat-Bold" font-weight="bold" font-size="239.0" fill="#F7F7F7" transform="matrix(1.00, 0.00, -0.00, -1.00, 1060.2, 4.0)">r</text><text xml:space="preserve" font-family="Montserrat-Bold" font-weight="bold" font-size="239.0" fill="#F7F7F7" transform="matrix(1.00, 0.00, -0.00, -1.00, 1162.3, 4.0)">i</text><text xml:space="preserve" font-family="Montserrat-Bold" font-weight="bold" font-size="239.0" fill="#F7F7F7" transform="matrix(1.00, 0.00, -0.00, -1.00, 1234.2, 4.0)">e</text><text xml:space="preserve" font-family="Montserrat-Bold" font-weight="bold" font-size="239.0" fill="#F7F7F7" transform="matrix(1.00, 0.00, -0.00, -1.00, 1385.0, 4.0)">s</text></g></svg>