<?xml version="1.0" encoding="UTF-8"?><svg xmlns="http://www.w3.org/2000/svg" xmlns:xlink="http://www.w3.org/1999/xlink" clip-rule="evenodd" stroke-miterlimit="4.00" viewBox="0 0 706 142"><desc>SVG generated by Keynote</desc><defs></defs><g transform="matrix(1.00, 0.00, -0.00, -1.00, 0.0, 142.0)"><text xml:space="preserve" font-family="Montserrat-Regular" font-size="87.6" fill="#000000" transform="matrix(1.00, 0.00, -0.00, -1.00, 0.1, 56.9)">•</text><text xml:space="preserve" font-family="Montserrat-Regular" font-size="29.0" fill="#000000" transform="matrix(1.00, 0.00, -0.00, -1.00, 26.0, 72.0)"> </text><text xml:space="preserve" font-family="Montserrat-Regular" font-size="29.0" fill="#000000" transform="matrix(1.00, 0.00, -0.00, -1.00, 39.8, 72.0)">P</text><text xml:space="preserve" font-family="Montserrat-Regular" font-size="29.0" fill="#000000" transform="matrix(1.00, 0.00, -0.00, -1.00, 66.4, 72.0)">a</text><text xml:space="preserve" font-family="Montserrat-Regular" font-size="29.0" fill="#000000" transform="matrix(1.00, 0.00, -0.00, -1.00, 89.7, 72.0)">r</text><text xml:space="preserve" font-family="Montserrat-Regular" font-size="29.0" fill="#000000" transform="matrix(1.00, 0.00, -0.00, -1.00, 107.4, 72.0)">i</text><text xml:space="preserve" font-family="Montserrat-Regular" font-size="29.0" fill="#000000" transform="matrix(1.00, 0.00, -0.00, -1.00, 121.4, 72.0)">s</text><text xml:space="preserve" font-family="Montserrat-Regular" font-size="29.0" fill="#000000" transform="matrix(1.00, 0.00, -0.00, -1.00, 141.8, 72.0)"> </text><text xml:space="preserve" font-family="Montserrat-Regular" font-size="29.0" fill="#000000" transform="matrix(1.00, 0.00, -0.00, -1.00, 155.6, 72.0)">-</text><text xml:space="preserve" font-family="Montserrat-Regular" font-size="29.0" fill="#000000" transform="matrix(1.00, 0.00, -0.00, -1.00, 172.9, 72.0)"> </text><text xml:space="preserve" font-family="Montserrat-Regular" font-size="29.0" fill="#000000" transform="matrix(1.00, 0.00, -0.00, -1.00, 186.7, 72.0)">C</text><text xml:space="preserve" font-family="Montserrat-Regular" font-size="29.0" fill="#000000" transform="matrix(1.00, 0.00, -0.00, -1.00, 213.7, 72.0)">h</text><text xml:space="preserve" font-family="Montserrat-Regular" font-size="29.0" fill="#000000" transform="matrix(1.00, 0.00, -0.00, -1.00, 239.6, 72.0)">a</text><text xml:space="preserve" font-family="Montserrat-Regular" font-size="29.0" fill="#000000" transform="matrix(1.00, 0.00, -0.00, -1.00, 262.9, 72.0)">r</text><text xml:space="preserve" font-family="Montserrat-Regular" font-size="29.0" fill="#000000" transform="matrix(1.00, 0.00, -0.00, -1.00, 280.5, 72.0)">l</text><text xml:space="preserve" font-family="Montserrat-Regular" font-size="29.0" fill="#000000" transform="matrix(1.00, 0.00, -0.00, -1.00, 294.5, 72.0)">e</text><text xml:space="preserve" font-family="Montserrat-Regular" font-size="29.0" fill="#000000" transform="matrix(1.00, 0.00, -0.00, -1.00, 318.3, 72.0)">s</text><text xml:space="preserve" font-family="Montserrat-Regular" font-size="29.0" fill="#000000" transform="matrix(1.00, 0.00, -0.00, -1.00, 338.7, 72.0)"> </text><text xml:space="preserve" font-family="Montserrat-Regular" font-size="29.0" fill="#000000" transform="matrix(1.00, 0.00, -0.00, -1.00, 352.5, 72.0)">d</text><text xml:space="preserve" font-family="Montserrat-Regular" font-size="29.0" fill="#000000" transform="matrix(1.00, 0.00, -0.00, -1.00, 378.4, 72.0)">e</text><text xml:space="preserve" font-family="Montserrat-Regular" font-size="29.0" fill="#000000" transform="matrix(1.00, 0.00, -0.00, -1.00, 402.1, 72.0)"> </text><text xml:space="preserve" font-family="Montserrat-Regular" font-size="29.0" fill="#000000" transform="matrix(1.00, 0.00, -0.00, -1.00, 415.9, 72.0)">G</text><text xml:space="preserve" font-family="Montserrat-Regular" font-size="29.0" fill="#000000" transform="matrix(1.00, 0.00, -0.00, -1.00, 444.5, 72.0)">a</text><text xml:space="preserve" font-family="Montserrat-Regular" font-size="29.0" fill="#000000" transform="matrix(1.00, 0.00, -0.00, -1.00, 467.9, 72.0)">u</text><text xml:space="preserve" font-family="Montserrat-Regular" font-size="29.0" fill="#000000" transform="matrix(1.00, 0.00, -0.00, -1.00, 493.6, 72.0)">l</text><text xml:space="preserve" font-family="Montserrat-Regular" font-size="29.0" fill="#000000" transform="matrix(1.00, 0.00, -0.00, -1.00, 507.6, 72.0)">l</text><text xml:space="preserve" font-family="Montserrat-Regular" font-size="29.0" fill="#000000" transform="matrix(1.00, 0.00, -0.00, -1.00, 521.6, 72.0)">e</text><text xml:space="preserve" font-family="Montserrat-Regular" font-size="29.0" fill="#000000" transform="matrix(1.00, 0.00, -0.00, -1.00, 545.4, 72.0)"> </text><text xml:space="preserve" font-family="Montserrat-Regular" font-size="29.0" fill="#000000" transform="matrix(1.00, 0.00, -0.00, -1.00, 559.2, 72.0)">A</text><text xml:space="preserve" font-family="Montserrat-Regular" font-size="29.0" fill="#000000" transform="matrix(1.00, 0.00, -0.00, -1.00, 586.2, 72.0)">i</text><text xml:space="preserve" font-family="Montserrat-Regular" font-size="29.0" fill="#000000" transform="matrix(1.00, 0.00, -0.00, -1.00, 600.2, 72.0)">r</text><text xml:space="preserve" font-family="Montserrat-Regular" font-size="29.0" fill="#000000" transform="matrix(1.00, 0.00, -0.00, -1.00, 617.8, 72.0)">p</text><text xml:space="preserve" font-family="Montserrat-Regular" font-size="29.0" fill="#000000" transform="matrix(1.00, 0.00, -0.00, -1.00, 643.7, 72.0)">o</text><text xml:space="preserve" font-family="Montserrat-Regular" font-size="29.0" fill="#000000" transform="matrix(1.00, 0.00, -0.00, -1.00, 668.1, 72.0)">r</text><text xml:space="preserve" font-family="Montserrat-Regular" font-size="29.0" fill="#000000" transform="matrix(1.00, 0.00, -0.00, -1.00, 686.4, 72.0)">t</text><text xml:space="preserve" font-family="Montserrat-Regular" font-size="29.0" fill="#000000" transform="matrix(1.00, 0.00, -0.00, -1.00, 704.3, 72.0)"> </text><text xml:space="preserve" font-family="Montserrat-Regular" font-size="87.6" fill="#000000" transform="matrix(1.00, 0.00, -0.00, -1.00, 0.1, 21.9)">•</text><text xml:space="preserve" font-family="Montserrat-Regular" font-size="29.0" fill="#000000" transform="matrix(1.00, 0.00, -0.00, -1.00, 26.0, 37.0)"> </text><text xml:space="preserve" font-family="Montserrat-Regular" font-size="29.0" fill="#000000" transform="matrix(1.00, 0.00, -0.00, -1.00, 39.8, 37.0)">A</text><text xml:space="preserve" font-family="Montserrat-Regular" font-size="29.0" fill="#000000" transform="matrix(1.00, 0.00, -0.00, -1.00, 66.8, 37.0)">m</text><text xml:space="preserve" font-family="Montserrat-Regular" font-size="29.0" fill="#000000" transform="matrix(1.00, 0.00, -0.00, -1.00, 103.8, 37.0)">s</text><text xml:space="preserve" font-family="Montserrat-Regular" font-size="29.0" fill="#000000" transform="matrix(1.00, 0.00, -0.00, -1.00, 124.2, 37.0)">t</text><text xml:space="preserve" font-family="Montserrat-Regular" font-size="29.0" fill="#000000" transform="matrix(1.00, 0.00, -0.00, -1.00, 141.6, 37.0)">e</text><text xml:space="preserve" font-family="Montserrat-Regular" font-size="29.0" fill="#000000" transform="matrix(1.00, 0.00, -0.00, -1.00, 165.4, 37.0)">r</text><text xml:space="preserve" font-family="Montserrat-Regular" font-size="29.0" fill="#000000" transform="matrix(1.00, 0.00, -0.00, -1.00, 182.8, 37.0)">d</text><text xml:space="preserve" font-family="Montserrat-Regular" font-size="29.0" fill="#000000" transform="matrix(1.00, 0.00, -0.00, -1.00, 208.7, 37.0)">a</text><text xml:space="preserve" font-family="Montserrat-Regular" font-size="29.0" fill="#000000" transform="matrix(1.00, 0.00, -0.00, -1.00, 232.0, 37.0)">m</text><text xml:space="preserve" font-family="Montserrat-Regular" font-size="29.0" fill="#000000" transform="matrix(1.00, 0.00, -0.00, -1.00, 269.0, 37.0)"> </text><text xml:space="preserve" font-family="Montserrat-Regular" font-size="29.0" fill="#000000" transform="matrix(1.00, 0.00, -0.00, -1.00, 282.8, 37.0)">-</text><text xml:space="preserve" font-family="Montserrat-Regular" font-size="29.0" fill="#000000" transform="matrix(1.00, 0.00, -0.00, -1.00, 300.1, 37.0)"> </text><text xml:space="preserve" font-family="Montserrat-Regular" font-size="29.0" fill="#000000" transform="matrix(1.00, 0.00, -0.00, -1.00, 313.9, 37.0)">S</text><text xml:space="preserve" font-family="Montserrat-Regular" font-size="29.0" fill="#000000" transform="matrix(1.00, 0.00, -0.00, -1.00, 338.0, 37.0)">c</text><text xml:space="preserve" font-family="Montserrat-Regular" font-size="29.0" fill="#000000" transform="matrix(1.00, 0.00, -0.00, -1.00, 360.3, 37.0)">h</text><text xml:space="preserve" font-family="Montserrat-Regular" font-size="29.0" fill="#000000" transform="matrix(1.00, 0.00, -0.00, -1.00, 386.1, 37.0)">i</text><text xml:space="preserve" font-family="Montserrat-Regular" font-size="29.0" fill="#000000" transform="matrix(1.00, 0.00, -0.00, -1.00, 400.2, 37.0)">p</text><text xml:space="preserve" font-family="Montserrat-Regular" font-size="29.0" fill="#000000" transform="matrix(1.00, 0.00, -0.00, -1.00, 426.0, 37.0)">h</text><text xml:space="preserve" font-family="Montserrat-Regular" font-size="29.0" fill="#000000" transform="matrix(1.00, 0.00, -0.00, -1.00, 451.9, 37.0)">o</text><text xml:space="preserve" font-family="Montserrat-Regular" font-size="29.0" fill="#000000" transform="matrix(1.00, 0.00, -0.00, -1.00, 476.3, 37.0)">l</text><text xml:space="preserve" font-family="Montserrat-Regular" font-size="29.0" fill="#000000" transform="matrix(1.00, 0.00, -0.00, -1.00, 490.4, 37.0)"> </text><text xml:space="preserve" font-family="Montserrat-Regular" font-size="29.0" fill="#000000" transform="matrix(1.00, 0.00, -0.00, -1.00, 504.2, 37.0)">A</text><text xml:space="preserve" font-family="Montserrat-Regular" font-size="29.0" fill="#000000" transform="matrix(1.00, 0.00, -0.00, -1.00, 531.2, 37.0)">i</text><text xml:space="preserve" font-family="Montserrat-Regular" font-size="29.0" fill="#000000" transform="matrix(1.00, 0.00, -0.00, -1.00, 545.2, 37.0)">r</text><text xml:space="preserve" font-family="Montserrat-Regular" font-size="29.0" fill="#000000" transform="matrix(1.00, 0.00, -0.00, -1.00, 562.8, 37.0)">p</text><text xml:space="preserve" font-family="Montserrat-Regular" font-size="29.0" fill="#000000" transform="matrix(1.00, 0.00, -0.00, -1.00, 588.7, 37.0)">o</text><text xml:space="preserve" font-family="Montserrat-Regular" font-size="29.0" fill="#000000" transform="matrix(1.00, 0.00, -0.00, -1.00, 613.1, 37.0)">r</text><text xml:space="preserve" font-family="Montserrat-Regular" font-size="29.0" fill="#000000" transform="matrix(1.00, 0.00, -0.00, -1.00, 631.4, 37.0)">t</text></g></svg>